<?xml version="1.0" encoding="UTF-8"?>
<svg version="1.1" xmlns="http://www.w3.org/2000/svg" width="1536" height="1024">
<path d="M0 0 C2.72555304 0.63353677 2.72555304 0.63353677 4.7734375 -0.625 C4.7734375 0.365 4.7734375 1.355 4.7734375 2.375 C5.48628906 2.49746094 6.19914063 2.61992187 6.93359375 2.74609375 C20.29982089 5.70615231 32.57872731 13.95648249 43.6484375 21.75 C44.26187012 22.17885498 44.87530273 22.60770996 45.50732422 23.04956055 C46.96935871 24.10472595 48.37759092 25.2337151 49.7734375 26.375 C49.7734375 27.035 49.7734375 27.695 49.7734375 28.375 C48.34326172 29.46899414 48.34326172 29.46899414 46.328125 30.66015625 C45.58723633 31.10456055 44.84634766 31.54896484 44.08300781 32.00683594 C43.27959961 32.47895508 42.47619141 32.95107422 41.6484375 33.4375 C34.56616976 37.63819295 34.56616976 37.63819295 27.671875 42.13671875 C26.74205811 42.76791626 26.74205811 42.76791626 25.79345703 43.41186523 C24.11769536 44.56039761 22.45301723 45.72505285 20.7890625 46.890625 C17.09575583 48.70857388 15.66592527 48.59171797 11.7734375 47.375 C9.59516227 46.33629805 7.45041462 45.22558694 5.3359375 44.0625 C-15.03935038 33.43688258 -37.13237481 33.61019488 -58.8112793 40.078125 C-79.4480876 46.802874 -97.06562252 61.73528031 -107.81640625 80.51171875 C-109.56705517 84.06636047 -111.05932175 87.67632619 -112.4765625 91.375 C-112.72301514 92.01526123 -112.96946777 92.65552246 -113.22338867 93.31518555 C-116.77932431 103.05621215 -117.56800393 112.42369954 -117.5390625 122.75 C-117.55517578 123.89210938 -117.57128906 125.03421875 -117.58789062 126.2109375 C-117.59233225 134.02820253 -116.4191625 140.88860038 -114.2265625 148.375 C-113.8867529 149.70669754 -113.55075106 151.03941374 -113.2265625 152.375 C-107.44036183 153.71801386 -104.20709694 153.80145572 -98.984375 150.83203125 C-97.09149464 149.64112962 -95.21445456 148.42478571 -93.3515625 147.1875 C-92.34198486 146.54474121 -91.33240723 145.90198242 -90.29223633 145.23974609 C-88.2299328 143.92419746 -86.17394562 142.59869274 -84.12451172 141.26318359 C-80.82184445 139.11130249 -77.49154115 137.00683495 -74.15429688 134.90917969 C-71.86310732 133.46794755 -69.57810592 132.01721149 -67.29296875 130.56640625 C-58.04629683 124.71927335 -48.69722016 119.03523573 -39.37451172 113.31054688 C-34.71514292 110.44568912 -30.06369453 107.56812601 -25.4140625 104.6875 C-24.56730957 104.16293213 -23.72055664 103.63836426 -22.84814453 103.09790039 C-21.15570299 102.04924843 -19.46331977 101.00050233 -17.77099609 99.95166016 C-14.30243892 97.80236614 -10.8328915 95.65467359 -7.36328125 93.50708008 C-5.6067015 92.41978974 -3.85019098 91.33238755 -2.09375 90.24487305 C2.24250212 87.56008545 6.5794634 84.87645766 10.91796875 82.1953125 C12.64068582 81.1303067 14.36334171 80.06520195 16.0859375 79 C17.38132446 78.19900879 17.38132446 78.19900879 18.70288086 77.38183594 C24.26939419 73.93592355 29.82103306 70.46703962 35.36645508 66.98730469 C86.17445605 35.12317319 86.17445605 35.12317319 109.5234375 22.5625 C110.13807861 22.23048584 110.75271973 21.89847168 111.38598633 21.55639648 C115.52158796 19.375 115.52158796 19.375 117.7734375 19.375 C117.16797209 23.28300403 115.28319864 25.65235653 112.8984375 28.75 C112.49842529 29.27255371 112.09841309 29.79510742 111.6862793 30.33349609 C110.39019405 32.02052756 109.08357972 33.69886663 107.7734375 35.375 C107.35239746 35.91447266 106.93135742 36.45394531 106.49755859 37.00976562 C105.19586437 38.67489727 103.89125492 40.33770747 102.5859375 42 C101.91739746 42.85356079 101.91739746 42.85356079 101.23535156 43.72436523 C98.52027099 47.18245585 95.77197311 50.61000444 92.99609375 54.01953125 C91.71337923 55.61705709 90.43082531 57.21471189 89.1484375 58.8125 C88.53202393 59.55773926 87.91561035 60.30297852 87.28051758 61.07080078 C83.81065051 65.42462637 81.66079637 68.58392072 81.7734375 74.375 C82.55964964 76.92232732 83.39007237 79.14856313 84.4609375 81.5625 C96.72076267 112.1190228 93.97468039 146.27159873 81.7734375 176.375 C76.91053825 187.47226843 70.55843804 197.13416735 62.7734375 206.375 C62.03222656 207.26832031 61.29101562 208.16164063 60.52734375 209.08203125 C55.18265101 215.28416133 49.2585446 220.39826739 42.7734375 225.375 C41.90976562 226.05433594 41.04609375 226.73367188 40.15625 227.43359375 C24.57065567 239.2962197 6.31249172 247.20712223 -13.2265625 249.375 C-14.10054687 249.48457031 -14.97453125 249.59414063 -15.875 249.70703125 C-48.60336857 253.30619202 -80.03933358 244.49981928 -107.2265625 226.375 C-104.26056861 223.16577607 -101.22967622 220.99165085 -97.47265625 218.7734375 C-95.82040039 217.79117188 -95.82040039 217.79117188 -94.13476562 216.7890625 C-92.97798877 216.10916367 -91.82108643 215.42947829 -90.6640625 214.75 C-89.50291941 214.06306729 -88.34210872 213.37557239 -87.18164062 212.6875 C-85.05574291 211.42715525 -82.92822294 210.16954006 -80.79858398 208.91552734 C-78.91073775 207.78479078 -77.05755125 206.59565916 -75.2265625 205.375 C-69.34790081 205.57427667 -63.90306464 206.90852644 -58.2265625 208.375 C-52.55360454 209.83751878 -47.09260384 211.12887239 -41.2265625 211.375 C-40.30359375 211.4265625 -39.380625 211.478125 -38.4296875 211.53125 C-12.48376354 212.30575519 11.846921 203.1456987 30.7734375 185.375 C47.22951938 167.84860385 56.53810835 145.68952997 56.0234375 121.5 C55.45821354 114.43470046 54.86169765 107.22808074 50.59765625 101.40234375 C47.8961837 99.06003215 47.8961837 99.06003215 44.40234375 99.30078125 C40.3670537 100.4952966 37.17331467 102.24584181 33.7109375 104.5625 C33.03611328 104.99884766 32.36128906 105.43519531 31.66601562 105.88476562 C30.17524004 106.84875594 28.68758588 107.81758586 27.20263672 108.79052734 C22.75257034 111.69313345 18.25867736 114.52718572 13.7734375 117.375 C11.88145842 118.58064758 9.98953064 119.78637565 8.09765625 120.9921875 C2.96960832 124.25540791 -2.17885459 127.484564 -7.33789062 130.69848633 C-12.31369711 133.79956087 -17.27219986 136.92729726 -22.2265625 140.0625 C-29.54424122 144.69188275 -36.88110162 149.28983879 -44.2265625 153.875 C-54.58220745 160.34000415 -64.91148527 166.84551622 -75.2265625 173.375 C-88.49999819 181.77713613 -101.80668398 190.12455697 -115.1328125 198.44287109 C-118.20675185 200.36262772 -121.27938126 202.28446258 -124.3515625 204.20703125 C-129.34068975 207.32909129 -134.33174947 210.44803404 -139.32470703 213.56396484 C-141.24791944 214.7642332 -143.17077547 215.9650728 -145.09326172 217.16650391 C-151.120609 220.9308534 -157.16181458 224.67119015 -163.2265625 228.375 C-163.93619141 228.81021973 -164.64582031 229.24543945 -165.37695312 229.69384766 C-167.2770735 230.85181957 -169.18646412 231.99201796 -171.1015625 233.125 C-172.13023437 233.73859375 -173.15890625 234.3521875 -174.21875 234.984375 C-177.58436225 236.5404243 -180.55113592 237.02495937 -184.2265625 237.375 C-175.77713613 226.08658139 -167.29990522 214.83730835 -158.3515625 203.9375 C-153.0598577 197.45679605 -153.0598577 197.45679605 -147.9765625 190.8125 C-147.19539063 189.75869141 -147.19539063 189.75869141 -146.3984375 188.68359375 C-144.43822546 184.82197603 -143.66421211 181.41167475 -144.84033203 177.15209961 C-145.79686919 174.60991617 -146.84111371 172.12022438 -147.9140625 169.625 C-160.35430992 138.69066601 -160.26267105 104.65630338 -147.5390625 73.8125 C-141.21759085 59.13122871 -133.03819266 47.1019977 -122.2265625 35.375 C-121.42605469 34.48039062 -120.62554687 33.58578125 -119.80078125 32.6640625 C-89.15365813 0.00813636 -42.30221011 -8.19413271 0 0 Z " fill="#000000" transform="translate(475.2265625,348.625)"/>
<path d="M0 0 C1.05507248 -0.02236725 2.11014496 -0.0447345 3.19718933 -0.06777954 C4.33779312 -0.07425507 5.47839691 -0.08073059 6.65356445 -0.08740234 C7.82893265 -0.09975922 9.00430084 -0.11211609 10.21528625 -0.12484741 C12.70597343 -0.14443596 15.1967383 -0.15564965 17.6875 -0.15917969 C21.48546102 -0.17322379 25.28009683 -0.24049208 29.07739258 -0.31005859 C31.49860192 -0.32246216 33.9198301 -0.33167909 36.34106445 -0.33740234 C38.03678841 -0.3774791 38.03678841 -0.3774791 39.76676941 -0.41836548 C45.26660119 -0.37134842 48.85777263 -0.12448416 53.05224609 3.61791992 C53.67065872 4.2575769 54.28907135 4.89723389 54.92622375 5.55627441 C56.91295378 7.53492836 58.89425219 8.82300096 61.28540039 10.27416992 C67.30151577 14.44671535 72.54981753 19.22385822 74.3543396 26.59664154 C76.50827267 39.62485209 75.62065189 53.15983635 75.17150879 66.2958374 C75.04786055 70.44591463 75.00054021 74.59530375 74.95654678 78.74687862 C74.90271708 83.69974113 74.81646008 88.65180665 74.7199707 93.60400391 C74.69332714 95.01899327 74.69332714 95.01899327 74.66614532 96.46256828 C74.60811839 99.11465622 74.52818335 101.76503363 74.43969727 104.41625977 C74.41581436 105.59970978 74.41581436 105.59970978 74.39144897 106.80706787 C74.30450439 108.98472595 74.30450439 108.98472595 73.8293457 112.45166016 C70.70451327 114.53488178 70.0005268 114.70113326 66.45043945 114.68212891 C65.6119043 114.68019531 64.77336914 114.67826172 63.90942383 114.67626953 C63.03737305 114.66402344 62.16532227 114.65177734 61.2668457 114.63916016 C59.95296875 114.63819336 59.95296875 114.63819336 58.61254883 114.63720703 C52.11033956 114.59215708 52.11033956 114.59215708 49.8293457 113.45166016 C49.80428955 112.65469727 49.7792334 111.85773438 49.75341797 111.03662109 C49.63735781 107.42480793 49.51467639 103.81324914 49.3918457 100.20166016 C49.3525293 98.94740234 49.31321289 97.69314453 49.27270508 96.40087891 C49.23081055 95.19560547 49.18891602 93.99033203 49.14575195 92.74853516 C49.10909424 91.63833008 49.07243652 90.528125 49.03466797 89.38427734 C48.93621226 86.56422073 48.93621226 86.56422073 48.24707031 84.37060547 C47.8293457 82.45166016 47.8293457 82.45166016 48.8293457 77.45166016 C31.0093457 77.45166016 13.1893457 77.45166016 -5.1706543 77.45166016 C-5.05200764 88.50620218 -5.05200764 88.50620218 -4.90039062 99.56030273 C-4.89162791 100.94725859 -4.88398346 102.33422216 -4.87768555 103.72119141 C-4.86233765 104.4399646 -4.84698975 105.15873779 -4.83117676 105.89929199 C-4.82965056 108.80364193 -4.83360603 110.92170175 -6.41748047 113.41210938 C-8.60005836 114.70627685 -9.98206333 114.82485849 -12.5144043 114.81494141 C-13.76543945 114.81397461 -13.76543945 114.81397461 -15.04174805 114.81298828 C-15.90928711 114.796875 -16.77682617 114.78076172 -17.6706543 114.76416016 C-18.53819336 114.76738281 -19.40573242 114.77060547 -20.29956055 114.77392578 C-26.76975838 114.7189241 -26.76975838 114.7189241 -30.1706543 112.45166016 C-30.48343669 109.66831071 -30.60080714 107.10514491 -30.59057617 104.31762695 C-30.59904572 103.47680573 -30.60751526 102.6359845 -30.61624146 101.76968384 C-30.63970972 98.9799298 -30.64063109 96.19072435 -30.6394043 93.40087891 C-30.64650146 91.46515175 -30.6541998 89.5294267 -30.66247559 87.59370422 C-30.67594406 83.53075317 -30.67747924 79.46799647 -30.67163086 75.4050293 C-30.66574153 70.19927001 -30.69628347 64.99444554 -30.73674774 59.788867 C-30.76260851 55.78852823 -30.76550346 51.78841476 -30.76185608 47.78800392 C-30.76354977 45.86905384 -30.77321621 43.95009362 -30.79100037 42.0312252 C-30.81315153 39.34480907 -30.80350752 36.66028695 -30.78588867 33.97387695 C-30.79915192 33.18148117 -30.81241516 32.38908539 -30.82608032 31.57267761 C-30.76417135 27.50748893 -30.38828731 25.71244894 -27.74743652 22.54792786 C-26.47192932 21.51027534 -26.47192932 21.51027534 -25.1706543 20.45166016 C-23.98988498 19.13079956 -22.82186569 17.79836028 -21.6706543 16.45166016 C-17.49403953 11.64222497 -13.17349644 7.40127237 -8.1706543 3.45166016 C-7.73331467 2.92730377 -7.29597504 2.40294739 -6.84538269 1.86270142 C-4.53733706 -0.08194085 -2.99432588 0.04660442 0 0 Z M-0.1706543 27.45166016 C-0.1706543 28.11166016 -0.1706543 28.77166016 -0.1706543 29.45166016 C-0.8306543 29.45166016 -1.4906543 29.45166016 -2.1706543 29.45166016 C-4.51935177 31.42456603 -5.17167717 32.45472878 -6.1706543 35.45166016 C-6.26254115 36.9208095 -6.30132144 38.39370418 -6.3034668 39.86572266 C-6.30475586 40.70876953 -6.30604492 41.55181641 -6.30737305 42.42041016 C-6.30350586 43.29697266 -6.29963867 44.17353516 -6.2956543 45.07666016 C-6.29952148 45.96095703 -6.30338867 46.84525391 -6.30737305 47.75634766 C-6.30608398 48.59681641 -6.30479492 49.43728516 -6.3034668 50.30322266 C-6.30233887 51.0748877 -6.30121094 51.84655273 -6.30004883 52.64160156 C-6.3677095 54.47290065 -6.3677095 54.47290065 -5.1706543 55.45166016 C-3.45200021 55.54525205 -1.72949686 55.56910627 -0.00830078 55.56518555 C1.64329796 55.56507225 1.64329796 55.56507225 3.32826233 55.56495667 C4.52615891 55.55979538 5.72405548 55.55463409 6.95825195 55.54931641 C8.17761948 55.54790146 9.396987 55.54648651 10.65330505 55.54502869 C14.5661764 55.53940983 18.47899151 55.52685412 22.3918457 55.51416016 C25.03702717 55.50914759 27.68220953 55.50458426 30.32739258 55.50048828 C36.82806296 55.48943427 43.32870032 55.47267779 49.8293457 55.45166016 C49.9241217 52.05862337 49.98161026 48.66592944 50.0324707 45.27197266 C50.05970215 44.31331299 50.08693359 43.35465332 50.11499023 42.36694336 C50.17421789 37.10251575 50.20168873 33.48989603 46.5793457 29.32666016 C44.78986136 27.72968407 44.78986136 27.72968407 42.8293457 26.45166016 C42.28753662 25.93869385 41.74572754 25.42572754 41.1875 24.8972168 C37.92374097 22.89652136 34.89325114 23.00264387 31.17700195 23.01806641 C30.43985458 23.01282455 29.70270721 23.0075827 28.94322205 23.00218201 C27.38745378 22.99577196 25.83163699 22.99708568 24.27587891 23.00561523 C21.90284371 23.01412074 19.53222106 22.98536215 17.15942383 22.95361328 C15.64445059 22.95200089 14.12947311 22.95257952 12.61450195 22.95556641 C11.9091481 22.94433243 11.20379425 22.93309845 10.47706604 22.92152405 C5.6853121 22.98887504 3.15523533 23.99268655 -0.1706543 27.45166016 Z " fill="#000000" transform="translate(1082.170654296875,425.54833984375)"/>
<path d="M0 0 C1.02148636 -0.00960754 2.04297272 -0.01921509 3.09541321 -0.02911377 C4.75010872 -0.03548859 4.75010872 -0.03548859 6.43823242 -0.04199219 C7.57395187 -0.04769226 8.70967133 -0.05339233 9.87980652 -0.05926514 C12.28477038 -0.06871672 14.68974721 -0.07524974 17.09472656 -0.07910156 C20.76870405 -0.08880119 24.44212077 -0.11982145 28.1159668 -0.15136719 C30.45255202 -0.15789791 32.78914124 -0.16314811 35.12573242 -0.16699219 C36.22279007 -0.17933899 37.31984772 -0.19168579 38.45014954 -0.20440674 C48.33426 -0.17563386 48.33426 -0.17563386 52.98120117 3.16113281 C53.47620117 4.64613281 53.47620117 4.64613281 53.98120117 6.16113281 C54.64120117 6.16113281 55.30120117 6.16113281 55.98120117 6.16113281 C55.98120117 6.82113281 55.98120117 7.48113281 55.98120117 8.16113281 C56.86545776 8.55751953 56.86545776 8.55751953 57.76757812 8.96191406 C60.06154052 10.20465623 61.56683509 11.50283463 63.39916992 13.34863281 C64.0134082 13.96480469 64.62764648 14.58097656 65.26049805 15.21582031 C65.89020508 15.85777344 66.51991211 16.49972656 67.16870117 17.16113281 C68.13066406 18.1240625 68.13066406 18.1240625 69.11206055 19.10644531 C78.42837244 28.5112966 76.21616474 42.62842718 76.54370117 55.28613281 C76.57154945 56.33857807 76.57154945 56.33857807 76.59996033 57.41228485 C77.30664927 87.79761433 77.30664927 87.79761433 68.21022034 98.23727417 C63.10576448 103.42409486 57.22349295 107.45957538 50.98120117 111.16113281 C50.37068405 111.680625 49.76016693 112.20011719 49.13114929 112.73535156 C46.51834451 114.4680855 45.03839913 114.54089115 41.92480469 114.54931641 C40.92018692 114.55877289 39.91556915 114.56822937 38.88050842 114.57797241 C37.80127609 114.57189972 36.72204376 114.56582703 35.61010742 114.55957031 C34.49562729 114.56244049 33.38114716 114.56531067 32.2328949 114.56826782 C29.87677502 114.57030864 27.52063821 114.56477762 25.16455078 114.55224609 C21.5607301 114.53620859 17.95803357 114.55208725 14.35424805 114.57128906 C12.06453203 114.56930634 9.77481672 114.56546206 7.48510742 114.55957031 C6.40789932 114.56564301 5.33069122 114.5717157 4.22084045 114.57797241 C-6.94638256 114.47318397 -11.59431072 108.93284091 -19.16772461 101.32788086 C-20.76921316 99.72321766 -22.38361432 98.13237786 -23.99926758 96.54199219 C-25.02221281 95.52131879 -26.04437596 94.49986083 -27.06567383 93.47753906 C-27.9921875 92.55400635 -28.91870117 91.63047363 -29.87329102 90.67895508 C-33.12247341 86.86593527 -33.1499165 83.5707825 -33.30688477 78.66503906 C-33.34231384 77.56289063 -33.37774292 76.46074219 -33.41424561 75.32519531 C-33.53900955 70.27229837 -33.62883675 65.21947518 -33.69848633 60.16552734 C-33.73850429 57.50757344 -33.81315839 54.85718667 -33.90356445 52.19970703 C-34.72118786 27.7228691 -34.72118786 27.7228691 -29.40985107 21.28059387 C-27.11008114 19.00850697 -24.61639416 17.07932336 -22.01879883 15.16113281 C-20.64815765 13.78771455 -19.300697 12.39040167 -17.98754883 10.96191406 C-16.83379651 9.79667527 -15.67764394 8.63380688 -14.51879883 7.47363281 C-13.92583008 6.86841797 -13.33286133 6.26320313 -12.72192383 5.63964844 C-12.14958008 5.06537109 -11.57723633 4.49109375 -10.98754883 3.89941406 C-10.48674805 3.39450439 -9.98594727 2.88959473 -9.4699707 2.36938477 C-6.57151005 -0.04388606 -3.59491221 0.02730328 0 0 Z M-3.78833008 28.43457031 C-5.21225431 30.0792249 -5.21225431 30.0792249 -5.01879883 32.16113281 C-6.00879883 32.49113281 -6.99879883 32.82113281 -8.01879883 33.16113281 C-9.15646293 41.34283384 -9.37570852 49.53323953 -9.47875977 57.78149414 C-9.5054867 59.41167387 -9.54654309 61.04168064 -9.60180664 62.67114258 C-10.29391387 73.54752526 -10.29391387 73.54752526 -5.80004883 83.03222656 C-4.03171066 84.69095211 -4.03171066 84.69095211 -2.01879883 86.16113281 C-1.28032715 86.87035889 -0.54185547 87.57958496 0.21899414 88.31030273 C3.76382123 90.68553114 6.81980483 90.84228509 10.95776367 90.90332031 C11.72365814 90.92137726 12.48955261 90.9394342 13.27865601 90.95803833 C14.89728264 90.9869758 16.51614142 91.00480023 18.13500977 91.01220703 C20.58138459 91.03589254 23.0174449 91.13410563 25.46166992 91.23535156 C33.61717148 91.40130593 39.47648978 91.06984237 45.56713867 85.23144531 C49.12659841 81.44624715 51.05972951 79.23223306 51.25341797 74.05371094 C51.30172005 72.78098328 51.30172005 72.78098328 51.35099792 71.48254395 C51.46220946 67.57558971 51.54415629 63.66878488 51.60595703 59.76074219 C51.64750668 57.70815729 51.7087672 55.6558689 51.79052734 53.60449219 C52.71961594 41.59332639 52.71961594 41.59332639 48.95239258 30.55957031 C44.31478683 25.62403992 40.82427618 23.58798352 33.98120117 23.16113281 C32.99120117 23.49113281 32.00120117 23.82113281 30.98120117 24.16113281 C28.97900217 23.84127306 26.97952901 23.50434844 24.98120117 23.16113281 C9.4180773 21.5296793 9.4180773 21.5296793 -3.78833008 28.43457031 Z " fill="#000000" transform="translate(737.018798828125,425.8388671875)"/>
<path d="M0 0 C1.07142998 -0.02190399 1.07142998 -0.02190399 2.164505 -0.04425049 C8.76296728 -0.17042727 15.36261916 -0.23907581 21.96203613 -0.29209328 C26.389166 -0.32778002 30.81446737 -0.38090443 35.24072266 -0.47753906 C39.53027833 -0.57089099 43.81822016 -0.61909768 48.10873413 -0.63648605 C49.73543139 -0.65049256 51.36207857 -0.67993226 52.9881897 -0.72578812 C61.2352579 -0.94688338 67.5439731 -0.87222912 74.28515625 4.56347656 C75.88041098 6.08637509 77.43925253 7.64884662 78.94921875 9.25634766 C79.6666626 9.97301605 80.38410645 10.68968445 81.12329102 11.42807007 C82.36894591 12.67532804 83.60349722 13.93375032 84.828125 15.20166016 C88.24940549 18.51582874 91.9907984 21.42397726 95.7265625 24.37353516 C97.94921875 26.25634766 97.94921875 26.25634766 98.94921875 28.25634766 C99.047467 30.86997304 99.08552269 33.45692855 99.07861328 36.07080078 C99.08124176 37.28073952 99.08124176 37.28073952 99.08392334 38.51512146 C99.08833521 41.18930189 99.08540619 43.86341652 99.08203125 46.53759766 C99.08270448 48.39082858 99.08367467 50.24405942 99.08493042 52.09729004 C99.08640649 55.98446492 99.08425573 59.87161685 99.07958984 63.75878906 C99.07389261 68.74925819 99.0771721 73.73967354 99.08316231 78.73014069 C99.08677036 82.55788582 99.08562821 86.38561814 99.08303452 90.21336365 C99.08236592 92.05382799 99.08319132 93.89429348 99.08551407 95.73475647 C99.08804457 98.30383399 99.08419435 100.87282358 99.07861328 103.44189453 C99.08063751 104.20767319 99.08266174 104.97345184 99.08474731 105.76243591 C99.06348301 111.02781913 99.06348301 111.02781913 97.94921875 113.25634766 C94.09943509 114.53960888 90.45848534 114.40142746 86.44921875 114.38134766 C85.67707031 114.38521484 84.90492188 114.38908203 84.109375 114.39306641 C80.80418138 114.38733817 78.10544377 114.30842266 74.94921875 113.25634766 C73.82814301 107.88765277 73.83684612 102.72147591 73.88671875 97.26806641 C73.89629782 95.2727875 73.90564798 93.27750749 73.91479492 91.28222656 C73.92110931 90.24559875 73.92742371 89.20897095 73.93392944 88.14093018 C73.95944396 82.8056966 73.94537208 77.4705237 73.9375 72.13525391 C73.92826409 65.38971046 73.96881057 58.65255152 74.1171875 51.90869141 C74.12581969 49.73291754 74.13258129 47.55713471 74.13671875 45.38134766 C74.18119141 44.44766357 74.22566406 43.51397949 74.27148438 42.55200195 C74.21085885 37.17098154 72.60527716 34.05698966 68.88671875 30.15869141 C59.87304658 23.53264539 48.41288858 25.31534747 37.76171875 25.69384766 C35.54760763 25.73905344 33.33340762 25.78010726 31.11914062 25.81689453 C25.72720836 25.91544779 20.33863246 26.06550514 14.94921875 26.25634766 C14.95365997 27.24304947 14.9581012 28.22975128 14.962677 29.24635315 C15.00327617 38.55947751 15.03322863 47.87258383 15.05284309 57.18577671 C15.06326617 61.97341675 15.07739841 66.76098516 15.10009766 71.54858398 C15.12187867 76.17161193 15.13379848 80.7945711 15.13897324 85.41764641 C15.14265955 87.17862975 15.14985799 88.93960947 15.16067886 90.70056343 C15.17526372 93.17309739 15.17719378 95.64534965 15.17626953 98.11791992 C15.18346008 98.84081207 15.19065063 99.56370422 15.19805908 100.3085022 C15.17905105 105.02886559 14.54983406 108.85591981 12.94921875 113.25634766 C9.42765517 115.01712944 5.39029924 114.44099366 1.51171875 114.44384766 C0.20364258 114.4622168 0.20364258 114.4622168 -1.13085938 114.48095703 C-1.96939453 114.48289062 -2.80792969 114.48482422 -3.671875 114.48681641 C-4.82320923 114.49297974 -4.82320923 114.49297974 -5.99780273 114.49926758 C-8.05078125 114.25634766 -8.05078125 114.25634766 -11.05078125 112.25634766 C-11.42271805 110.31354523 -11.42271805 110.31354523 -11.41827393 107.89123535 C-11.42384308 106.97423355 -11.42941223 106.05723175 -11.43515015 105.11244202 C-11.42593536 104.10354416 -11.41672058 103.0946463 -11.40722656 102.05517578 C-11.40927094 100.99495712 -11.41131531 99.93473846 -11.41342163 98.84239197 C-11.41643945 95.32395402 -11.39792226 91.8059802 -11.37890625 88.28759766 C-11.37585029 85.85144161 -11.37397293 83.41528382 -11.37322998 80.97912598 C-11.36862061 75.86785215 -11.3541703 70.75673533 -11.33203125 65.64550781 C-11.30374843 59.08114623 -11.29282047 52.51690848 -11.28834915 45.95249176 C-11.28419949 40.92033642 -11.2743858 35.88820633 -11.26247406 30.85606384 C-11.25676133 28.43505558 -11.25200596 26.01404486 -11.24820709 23.59303284 C-11.24136033 20.21448464 -11.22773534 16.8360361 -11.21191406 13.45751953 C-11.2107962 12.44862167 -11.20967834 11.43972382 -11.20852661 10.4002533 C-11.20281647 9.4832515 -11.19710632 8.56624969 -11.19122314 7.62145996 C-11.18824848 6.8220977 -11.18527382 6.02273544 -11.18220901 5.19915009 C-11.05078125 3.25634766 -11.05078125 3.25634766 -10.05078125 1.25634766 C-6.54668156 0.08831443 -3.69856186 0.07132348 0 0 Z " fill="#000000" transform="translate(594.05078125,425.74365234375)"/>
<path d="M0 0 C0.83853516 0.00193359 1.67707031 0.00386719 2.54101562 0.00585938 C3.41306641 0.01810547 4.28511719 0.03035156 5.18359375 0.04296875 C6.4974707 0.04393555 6.4974707 0.04393555 7.83789062 0.04492188 C14.3400999 0.08997182 14.3400999 0.08997182 16.62109375 1.23046875 C17.80248322 4.38924757 17.5663193 7.03401759 17.19140625 10.34375 C16.41614964 19.67100888 15.74515314 28.49910348 21.66479492 36.28027344 C27.7363373 42.74600874 33.65509654 45.08023478 42.47314453 45.74023438 C52.99856909 45.9835758 52.99856909 45.9835758 62.4453125 41.9453125 C64.85520189 39.50024224 66.71465581 37.0698444 68.62109375 34.23046875 C69.28109375 34.23046875 69.94109375 34.23046875 70.62109375 34.23046875 C72.58716268 30.92271387 72.90432287 28.33388155 73 24.51171875 C73.03416016 23.41472656 73.06832031 22.31773437 73.10351562 21.1875 C73.12994141 20.04667969 73.15636719 18.90585937 73.18359375 17.73046875 C73.24361886 15.46994863 73.30727061 13.20952115 73.375 10.94921875 C73.41089233 9.4477832 73.41089233 9.4477832 73.44750977 7.91601562 C73.60239849 5.51970626 73.81353544 3.48917408 74.62109375 1.23046875 C78.15713335 -0.53755105 82.2268063 0.04581962 86.12109375 0.04296875 C87.00152344 0.03072266 87.88195312 0.01847656 88.7890625 0.00585938 C89.63082031 0.00392578 90.47257813 0.00199219 91.33984375 0 C92.4990332 -0.00616333 92.4990332 -0.00616333 93.68164062 -0.01245117 C95.62109375 0.23046875 95.62109375 0.23046875 97.62109375 2.23046875 C98.51150065 8.02744169 98.7090285 13.87243862 98.87109375 19.73046875 C98.89510254 20.57249847 98.91911133 21.4145282 98.94384766 22.28207397 C99.10918379 32.67198062 98.63319897 40.3461689 91.17871094 48.265625 C87.50136205 51.53999598 83.76170068 54.56122111 79.62109375 57.23046875 C83.51542192 61.90592923 87.57819085 66.29604413 91.93359375 70.54296875 C98.71979181 77.16623288 98.71979181 77.16623288 98.81134033 83.58959961 C98.81559021 84.31671143 98.81984009 85.04382324 98.82421875 85.79296875 C98.82991882 86.54006104 98.8356189 87.28715332 98.8414917 88.05688477 C98.85094054 89.63719262 98.85747522 91.21752016 98.86132812 92.79785156 C98.87105594 95.22104935 98.90208787 97.64340682 98.93359375 100.06640625 C98.94012162 101.60025537 98.94537294 103.13411056 98.94921875 104.66796875 C98.96156555 105.39508057 98.97391235 106.12219238 98.9866333 106.87133789 C98.97753906 108.9140625 98.97753906 108.9140625 98.62109375 112.23046875 C95.49626132 114.31369037 94.79227484 114.47994185 91.2421875 114.4609375 C90.40365234 114.45900391 89.56511719 114.45707031 88.70117188 114.45507812 C87.82912109 114.44283203 86.95707031 114.43058594 86.05859375 114.41796875 C84.7447168 114.41700195 84.7447168 114.41700195 83.40429688 114.41601562 C76.9020876 114.37096568 76.9020876 114.37096568 74.62109375 113.23046875 C73.03572404 107.13364572 73.62682439 100.72789977 73.8359375 94.48632812 C73.94048226 88.1518658 73.01827604 84.97521692 68.7890625 80.1328125 C67.80873047 79.16021484 67.80873047 79.16021484 66.80859375 78.16796875 C66.16277344 77.51699219 65.51695312 76.86601562 64.8515625 76.1953125 C58.30151015 70.42530141 54.01645641 69.64273959 45.49609375 69.85546875 C44.01302734 69.85740234 44.01302734 69.85740234 42.5 69.859375 C36.27509965 69.87635589 36.27509965 69.87635589 30.62109375 72.23046875 C28.82996829 74.03126684 28.82996829 74.03126684 27.18359375 76.10546875 C25.1607207 78.57421869 23.66092026 80.20619409 20.91015625 81.8828125 C18.29467403 84.56524392 18.27980247 85.0994672 18.203125 88.6796875 C18.25485899 90.4267046 18.332609 92.17310565 18.43359375 93.91796875 C18.73440773 100.50135673 18.97709909 106.95228574 16.62109375 113.23046875 C12.96766981 115.05718072 8.64270216 114.41517597 4.62109375 114.41796875 C3.69296875 114.43021484 2.76484375 114.44246094 1.80859375 114.45507812 C0.92171875 114.45701172 0.03484375 114.45894531 -0.87890625 114.4609375 C-2.1009375 114.46710083 -2.1009375 114.46710083 -3.34765625 114.47338867 C-5.37890625 114.23046875 -5.37890625 114.23046875 -7.37890625 112.23046875 C-7.64008807 109.67145268 -7.77943823 107.22485312 -7.8203125 104.66015625 C-7.83408432 103.90509796 -7.84785614 103.15003967 -7.86204529 102.37210083 C-7.88534428 100.76995182 -7.90259598 99.16770531 -7.91430664 97.56542969 C-7.94108959 95.13421359 -8.01591779 92.70745177 -8.09179688 90.27734375 C-8.31480989 77.22842645 -8.31480989 77.22842645 -4.21484375 72.48828125 C-2.96654752 71.36758863 -1.68849897 70.27887818 -0.37890625 69.23046875 C0.66260622 68.17930238 1.69336377 67.11732561 2.7109375 66.04296875 C3.65752928 65.10281637 4.60669714 64.16524965 5.55859375 63.23046875 C6.29819336 62.49763672 6.29819336 62.49763672 7.05273438 61.75 C8.23982604 60.5744335 9.43009873 59.40208049 10.62109375 58.23046875 C9.24532956 54.94610472 7.90849574 53.50508276 4.92578125 51.60546875 C-0.62639841 47.5438113 -6.20954999 43.23414857 -7.85186768 36.20666504 C-8.67138313 30.60497239 -8.6873973 25.00485177 -8.56640625 19.35546875 C-8.55103821 18.53095215 -8.53567017 17.70643555 -8.51983643 16.85693359 C-8.45772843 14.48114046 -8.35901029 12.11156678 -8.234375 9.73828125 C-8.19901138 9.01182404 -8.16364777 8.28536682 -8.12721252 7.53689575 C-7.97338867 5.50830078 -7.97338867 5.50830078 -7.37890625 2.23046875 C-4.25407382 0.14724713 -3.55008734 -0.01900435 0 0 Z " fill="#000000" transform="translate(829.37890625,425.76953125)"/>
<path d="M0 0 C0.87205078 -0.020625 1.74410156 -0.04125 2.64257812 -0.0625 C3.48111328 -0.06765625 4.31964844 -0.0728125 5.18359375 -0.078125 C6.33492798 -0.09214355 6.33492798 -0.09214355 7.50952148 -0.10644531 C10.15597158 0.35304061 10.90189774 1.1670415 12.5625 3.25 C12.90739441 5.23406982 12.90739441 5.23406982 12.86791992 7.51855469 C12.86189255 8.37664734 12.85586517 9.23473999 12.84965515 10.11883545 C12.83094864 11.0438385 12.81224213 11.96884155 12.79296875 12.921875 C12.79086878 14.88541565 12.79026517 16.84895837 12.79101562 18.8125 C12.77654431 21.90494621 12.75007166 24.99586128 12.6965332 28.08789062 C12.65137909 31.07522932 12.65625808 34.05928949 12.66796875 37.046875 C12.63914108 37.96378113 12.61031342 38.88068726 12.58061218 39.82537842 C12.62535265 43.82762471 12.71411519 46.27359452 15.4034729 49.36877441 C17.57432279 51.27503561 17.57432279 51.27503561 19.84394836 52.88214111 C20.69463142 53.55923126 20.69463142 53.55923126 21.5625 54.25 C21.5625 54.91 21.5625 55.57 21.5625 56.25 C22.14 56.518125 22.7175 56.78625 23.3125 57.0625 C25.5625 58.25 25.5625 58.25 27.5 59.8125 C31.26002339 62.43312237 35.4673997 62.38780831 39.9375 62.375 C40.83210937 62.37757813 41.72671875 62.38015625 42.6484375 62.3828125 C51.62684776 61.97360882 56.13270694 59.74429108 62.61401367 53.71728516 C67.85366355 47.86420961 68.41069419 42.38962372 68.14648438 34.74462891 C67.91714071 30.74281844 67.51632635 26.76127797 67.11328125 22.7734375 C66.42273419 15.74126101 66.70168401 9.09774931 68.5625 2.25 C70.5625 0.25 70.5625 0.25 72.50195312 0.00708008 C73.27474609 0.01118896 74.04753906 0.01529785 74.84375 0.01953125 C75.68550781 0.02146484 76.52726562 0.02339844 77.39453125 0.02539062 C78.71517578 0.04375977 78.71517578 0.04375977 80.0625 0.0625 C81.38314453 0.0634668 81.38314453 0.0634668 82.73046875 0.06445312 C89.28169885 0.10959943 89.28169885 0.10959943 91.5625 1.25 C92.51907255 4.11971766 92.72103568 6.04938331 92.78710938 9.03759766 C92.82088684 10.49524033 92.82088684 10.49524033 92.85534668 11.98233032 C92.92660273 16.43621784 92.98389561 20.889943 93.02246094 25.34423828 C93.04903419 27.68754553 93.08992152 30.03073658 93.14550781 32.37353516 C93.22493346 35.76252238 93.25782229 39.14927891 93.28125 42.5390625 C93.31424194 43.57688873 93.34723389 44.61471497 93.38122559 45.68399048 C93.3570302 54.56505286 89.82669848 58.94435597 83.76022339 65.0697937 C82.19195558 66.59660514 80.58019045 68.05380362 78.9375 69.5 C77.84025402 70.48338083 76.74388761 71.46774404 75.6484375 72.453125 C75.12693115 72.92081299 74.6054248 73.38850098 74.06811523 73.87036133 C71.21145735 76.48799936 68.51436116 79.26391462 65.82421875 82.05078125 C65.30472656 82.54964844 64.78523437 83.04851562 64.25 83.5625 C63.73824219 84.07425781 63.22648438 84.58601563 62.69921875 85.11328125 C59.34831478 86.89593766 56.32157955 86.41750303 52.5625 86.25 C52.67078125 87.82587891 52.67078125 87.82587891 52.78125 89.43359375 C53.06810003 93.70430247 53.32262386 97.97641724 53.5625 102.25 C53.61921875 103.22710938 53.6759375 104.20421875 53.734375 105.2109375 C53.91871425 110.75954893 53.91871425 110.75954893 52.32055664 112.95996094 C50.11248452 114.58021549 48.90273064 114.611233 46.18359375 114.578125 C44.92579102 114.57039062 44.92579102 114.57039062 43.64257812 114.5625 C42.77052734 114.541875 41.89847656 114.52125 41 114.5 C39.68612305 114.49226562 39.68612305 114.49226562 38.34570312 114.484375 C31.87176894 114.40463447 31.87176894 114.40463447 29.5625 113.25 C28.61638376 110.41165129 28.38722274 108.42471297 28.28125 105.46875 C28.22517578 104.08236328 28.22517578 104.08236328 28.16796875 102.66796875 C28.09765625 100.72265625 28.02734375 98.77734375 27.95703125 96.83203125 C27.90095703 95.44564453 27.90095703 95.44564453 27.84375 94.03125 C27.81345703 93.18626953 27.78316406 92.34128906 27.75195312 91.47070312 C27.63516573 89.07726073 27.63516573 89.07726073 26.5625 86.25 C25.22131104 86.37338745 25.22131104 86.37338745 23.85302734 86.49926758 C19.76113166 86.18929388 18.76150859 85.13869255 15.9140625 82.26171875 C12.3795481 78.84449138 8.92077061 76.09152249 4.7734375 73.45703125 C-3.09157003 67.84180313 -10.06951364 62.09705964 -12.03491211 52.25982666 C-14.0710768 35.42672532 -12.74912185 18.10154228 -11.4375 1.25 C-7.91191767 -0.51279117 -3.88354409 0.02286119 0 0 Z " fill="#000000" transform="translate(949.4375,425.75)"/>
<path d="M0 0 C0.81984375 -0.01224609 1.6396875 -0.02449219 2.484375 -0.03710938 C3.27328125 -0.03904297 4.0621875 -0.04097656 4.875 -0.04296875 C5.59429688 -0.04707764 6.31359375 -0.05118652 7.0546875 -0.05541992 C9 0.1875 9 0.1875 12 2.1875 C12.37752342 4.1459198 12.37752342 4.1459198 12.38095093 6.59057617 C12.3894104 7.51599213 12.39786987 8.44140808 12.40658569 9.39486694 C12.400513 10.41311554 12.39444031 11.43136414 12.38818359 12.48046875 C12.39344055 13.55044098 12.39869751 14.62041321 12.40411377 15.72280884 C12.41736058 19.27368599 12.40855891 22.82411797 12.3984375 26.375 C12.40045688 28.83357835 12.40336718 31.29215613 12.40713501 33.75073242 C12.41156472 38.90907481 12.40510638 44.0672616 12.39111328 49.22558594 C12.37402124 55.85058476 12.38385894 62.47521903 12.40183067 69.10020447 C12.41265095 74.17869839 12.40923022 79.25710532 12.4014473 84.33560181 C12.39944043 86.77894127 12.4019215 89.22228853 12.40888596 91.6656189 C12.41647144 95.07547037 12.40493656 98.48472448 12.38818359 101.89453125 C12.39729263 103.42190414 12.39729263 103.42190414 12.40658569 104.98013306 C12.39812622 105.90554901 12.38966675 106.83096497 12.38095093 107.78442383 C12.37981985 108.59116043 12.37868877 109.39789703 12.37752342 110.2290802 C12.19064933 111.198498 12.19064933 111.198498 12 112.1875 C8.79593538 114.32354308 8.00399253 114.42958908 4.33203125 114.3828125 C3.43935547 114.37636719 2.54667969 114.36992188 1.62695312 114.36328125 C0.23379883 114.33814453 0.23379883 114.33814453 -1.1875 114.3125 C-2.12787109 114.30347656 -3.06824219 114.29445313 -4.03710938 114.28515625 C-6.35832968 114.26159056 -8.67903644 114.22869116 -11 114.1875 C-12.66259492 111.26933125 -13.24967738 109.18613409 -13.24723816 105.83657837 C-13.25352989 104.54135002 -13.25352989 104.54135002 -13.25994873 103.21995544 C-13.25432922 102.28063675 -13.24870972 101.34131805 -13.24291992 100.37353516 C-13.24481827 99.37797104 -13.24671661 98.38240692 -13.24867249 97.35667419 C-13.25237924 94.0632237 -13.24167558 90.76999344 -13.23046875 87.4765625 C-13.22927655 85.18736802 -13.22882387 82.89817305 -13.2290802 80.60897827 C-13.22751539 75.80894919 -13.21922712 71.00899469 -13.20581055 66.20898438 C-13.18883998 60.05984801 -13.18499572 53.91079377 -13.18575573 47.76163673 C-13.18548358 43.03300189 -13.17999474 38.30438495 -13.17275429 33.57575607 C-13.16957442 31.30877188 -13.16760181 29.04178565 -13.16686058 26.77479935 C-13.16468872 23.60324919 -13.15592554 20.43178545 -13.14526367 17.26025391 C-13.14571686 16.32498367 -13.14617004 15.38971344 -13.14663696 14.42610168 C-13.12442412 9.89953373 -12.92253471 5.64203538 -12 1.1875 C-7.96103843 -0.15882052 -4.2287853 0.00332452 0 0 Z " fill="#000000" transform="translate(1180,425.8125)"/>
<path d="M0 0 C1 4 1 4 1 4 Z " fill="#090809" transform="translate(317,481)"/>
<path d="M0 0 C3 1 3 1 3 1 Z " fill="#080708" transform="translate(448,344)"/>
<path d="" fill="#9C9C9C" transform="translate(0,0)"/>
<path d="M0 0 C2 1 2 1 2 1 Z " fill="#939393" transform="translate(948,1021)"/>
<path d="M0 0 C2 1 2 1 2 1 Z " fill="#929393" transform="translate(948,1013)"/>
<path d="" fill="#9F9E9F" transform="translate(0,0)"/>
<path d="M0 0 C2 1 2 1 2 1 Z " fill="#929292" transform="translate(948,997)"/>
<path d="M0 0 C2 1 2 1 2 1 Z " fill="#919092" transform="translate(1090,979)"/>
<path d="" fill="#8F9090" transform="translate(0,0)"/>
<path d="M0 0 C2 1 2 1 2 1 Z " fill="#8E8E8F" transform="translate(1090,955)"/>
<path d="M0 0 C2 1 2 1 2 1 Z " fill="#8C8C8D" transform="translate(1090,931)"/>
<path d="M0 0 C2 1 2 1 2 1 Z " fill="#838383" transform="translate(948,885)"/>
<path d="M0 0 C2 1 2 1 2 1 Z " fill="#7E7D7F" transform="translate(1090,843)"/>
<path d="M0 0 C2 1 2 1 2 1 Z " fill="#6F7171" transform="translate(948,805)"/>
<path d="" fill="#757576" transform="translate(0,0)"/>
<path d="M0 0 C2 1 2 1 2 1 Z " fill="#6F6E6E" transform="translate(948,797)"/>
<path d="M0 0 C2 1 2 1 2 1 Z " fill="#606161" transform="translate(1090,731)"/>
<path d="M0 0 C2 1 2 1 2 1 Z " fill="#535655" transform="translate(948,717)"/>
<path d="M0 0 C2 1 2 1 2 1 Z " fill="#5B5B5C" transform="translate(1090,715)"/>
<path d="" fill="#4A494B" transform="translate(0,0)"/>
<path d="M0 0 C2 1 2 1 2 1 Z " fill="#555657" transform="translate(1090,699)"/>
<path d="M0 0 C2 1 2 1 2 1 Z " fill="#535454" transform="translate(1090,691)"/>
<path d="M0 0 C2 1 2 1 2 1 Z " fill="#444545" transform="translate(948,669)"/>
<path d="M0 0 C2 1 2 1 2 1 Z " fill="#4A4A4B" transform="translate(1090,667)"/>
<path d="M0 0 C2 1 2 1 2 1 Z " fill="#464748" transform="translate(1090,659)"/>
<path d="M0 0 C2 1 2 1 2 1 Z " fill="#404141" transform="translate(1090,643)"/>
<path d="M0 0 C2 1 2 1 2 1 Z " fill="#373638" transform="translate(1090,619)"/>
<path d="M0 0 C2 1 2 1 2 1 Z " fill="#333333" transform="translate(1090,611)"/>
<path d="M0 0 C2 1 2 1 2 1 Z " fill="#2A2A2A" transform="translate(288,584)"/>
<path d="" fill="#080708" transform="translate(0,0)"/>
<path d="" fill="#000000" transform="translate(0,0)"/>
<path d="" fill="#020203" transform="translate(0,0)"/>
<path d="" fill="#000000" transform="translate(0,0)"/>
<path d="" fill="#010202" transform="translate(0,0)"/>
<path d="" fill="#010202" transform="translate(0,0)"/>
<path d="M0 0 C2 1 2 1 2 1 Z " fill="#020303" transform="translate(653,452)"/>
<path d="M0 0 C2 1 2 1 2 1 Z " fill="#020203" transform="translate(1090,451)"/>
<path d="" fill="#0C0D0D" transform="translate(0,0)"/>
<path d="M0 0 C2 1 2 1 2 1 Z " fill="#6C6C6C" transform="translate(1090,59)"/>
<path d="" fill="#6C6D6D" transform="translate(0,0)"/>
<path d="M0 0 C2 1 2 1 2 1 Z " fill="#706F70" transform="translate(1090,35)"/>
<path d="" fill="#969596" transform="translate(0,0)"/>
<path d="" fill="#919293" transform="translate(0,0)"/>
<path d="" fill="#A09FA2" transform="translate(0,0)"/>
<path d="" fill="#949394" transform="translate(0,0)"/>
<path d="" fill="#959294" transform="translate(0,0)"/>
<path d="" fill="#939392" transform="translate(0,0)"/>
<path d="" fill="#9A9A9B" transform="translate(0,0)"/>
<path d="" fill="#9C9C9E" transform="translate(0,0)"/>
<path d="" fill="#939393" transform="translate(0,0)"/>
<path d="" fill="#929393" transform="translate(0,0)"/>
<path d="" fill="#939494" transform="translate(0,0)"/>
<path d="" fill="#9D9F9F" transform="translate(0,0)"/>
<path d="" fill="#999B9A" transform="translate(0,0)"/>
<path d="" fill="#949594" transform="translate(0,0)"/>
<path d="" fill="#929593" transform="translate(0,0)"/>
<path d="" fill="#929394" transform="translate(0,0)"/>
<path d="" fill="#959694" transform="translate(0,0)"/>
<path d="" fill="#939393" transform="translate(0,0)"/>
<path d="" fill="#919393" transform="translate(0,0)"/>
<path d="" fill="#949395" transform="translate(0,0)"/>
<path d="" fill="#939393" transform="translate(0,0)"/>
<path d="" fill="#929391" transform="translate(0,0)"/>
<path d="" fill="#929394" transform="translate(0,0)"/>
<path d="" fill="#939392" transform="translate(0,0)"/>
<path d="" fill="#929292" transform="translate(0,0)"/>
<path d="" fill="#939492" transform="translate(0,0)"/>
<path d="" fill="#9B9B9B" transform="translate(0,0)"/>
<path d="" fill="#9E9E9E" transform="translate(0,0)"/>
<path d="" fill="#9C9B9B" transform="translate(0,0)"/>
<path d="" fill="#959595" transform="translate(0,0)"/>
<path d="" fill="#9A9A9B" transform="translate(0,0)"/>
<path d="" fill="#9C9B9D" transform="translate(0,0)"/>
<path d="" fill="#929492" transform="translate(0,0)"/>
<path d="" fill="#939294" transform="translate(0,0)"/>
<path d="" fill="#9B9C9D" transform="translate(0,0)"/>
<path d="" fill="#919393" transform="translate(0,0)"/>
<path d="" fill="#959494" transform="translate(0,0)"/>
<path d="" fill="#9FA0A0" transform="translate(0,0)"/>
<path d="" fill="#919393" transform="translate(0,0)"/>
<path d="" fill="#99999A" transform="translate(0,0)"/>
<path d="" fill="#949394" transform="translate(0,0)"/>
<path d="" fill="#959294" transform="translate(0,0)"/>
<path d="" fill="#9A9B9A" transform="translate(0,0)"/>
<path d="" fill="#919293" transform="translate(0,0)"/>
<path d="" fill="#939492" transform="translate(0,0)"/>
<path d="" fill="#9E9E9E" transform="translate(0,0)"/>
<path d="" fill="#949493" transform="translate(0,0)"/>
<path d="" fill="#929294" transform="translate(0,0)"/>
<path d="" fill="#9C9B9C" transform="translate(0,0)"/>
<path d="" fill="#969494" transform="translate(0,0)"/>
<path d="" fill="#969593" transform="translate(0,0)"/>
<path d="" fill="#9FA09F" transform="translate(0,0)"/>
<path d="" fill="#9B9B9C" transform="translate(0,0)"/>
<path d="" fill="#99999A" transform="translate(0,0)"/>
<path d="" fill="#9A9999" transform="translate(0,0)"/>
<path d="" fill="#919292" transform="translate(0,0)"/>
<path d="" fill="#919291" transform="translate(0,0)"/>
<path d="" fill="#9E9D9D" transform="translate(0,0)"/>
<path d="" fill="#9D9E9F" transform="translate(0,0)"/>
<path d="" fill="#949494" transform="translate(0,0)"/>
<path d="" fill="#9A9B9C" transform="translate(0,0)"/>
<path d="" fill="#929391" transform="translate(0,0)"/>
<path d="" fill="#9A9B9D" transform="translate(0,0)"/>
<path d="" fill="#909291" transform="translate(0,0)"/>
<path d="" fill="#939191" transform="translate(0,0)"/>
<path d="" fill="#929392" transform="translate(0,0)"/>
<path d="" fill="#9F9D9F" transform="translate(0,0)"/>
<path d="" fill="#969595" transform="translate(0,0)"/>
<path d="" fill="#909392" transform="translate(0,0)"/>
<path d="" fill="#9D9E9D" transform="translate(0,0)"/>
<path d="" fill="#9A989B" transform="translate(0,0)"/>
<path d="" fill="#9C9C9C" transform="translate(0,0)"/>
<path d="" fill="#9C9D9E" transform="translate(0,0)"/>
<path d="" fill="#949493" transform="translate(0,0)"/>
<path d="" fill="#98999A" transform="translate(0,0)"/>
<path d="" fill="#9B9C9D" transform="translate(0,0)"/>
<path d="" fill="#9B9C9C" transform="translate(0,0)"/>
<path d="" fill="#8F9091" transform="translate(0,0)"/>
<path d="" fill="#939393" transform="translate(0,0)"/>
<path d="" fill="#9E9C9E" transform="translate(0,0)"/>
<path d="" fill="#9A9A9B" transform="translate(0,0)"/>
<path d="" fill="#919291" transform="translate(0,0)"/>
<path d="" fill="#919190" transform="translate(0,0)"/>
<path d="" fill="#919191" transform="translate(0,0)"/>
<path d="" fill="#8F9190" transform="translate(0,0)"/>
<path d="" fill="#9D9C9C" transform="translate(0,0)"/>
<path d="" fill="#8F8F8F" transform="translate(0,0)"/>
<path d="" fill="#909090" transform="translate(0,0)"/>
<path d="" fill="#999B9C" transform="translate(0,0)"/>
<path d="" fill="#97999A" transform="translate(0,0)"/>
<path d="" fill="#99999A" transform="translate(0,0)"/>
<path d="" fill="#8F9090" transform="translate(0,0)"/>
<path d="" fill="#9A9A9B" transform="translate(0,0)"/>
<path d="" fill="#9B9C9D" transform="translate(0,0)"/>
<path d="" fill="#909090" transform="translate(0,0)"/>
<path d="" fill="#8E8E8E" transform="translate(0,0)"/>
<path d="" fill="#9A9C9C" transform="translate(0,0)"/>
<path d="" fill="#919192" transform="translate(0,0)"/>
<path d="" fill="#989798" transform="translate(0,0)"/>
<path d="" fill="#8F9090" transform="translate(0,0)"/>
<path d="" fill="#8F8F8E" transform="translate(0,0)"/>
<path d="" fill="#8D908F" transform="translate(0,0)"/>
<path d="" fill="#8E8E8E" transform="translate(0,0)"/>
<path d="" fill="#8E8F90" transform="translate(0,0)"/>
<path d="" fill="#8E8E8E" transform="translate(0,0)"/>
<path d="" fill="#8F8F8E" transform="translate(0,0)"/>
<path d="" fill="#979595" transform="translate(0,0)"/>
<path d="" fill="#9A9998" transform="translate(0,0)"/>
<path d="" fill="#999A98" transform="translate(0,0)"/>
<path d="" fill="#98999B" transform="translate(0,0)"/>
<path d="" fill="#999A9B" transform="translate(0,0)"/>
<path d="" fill="#8D8E8E" transform="translate(0,0)"/>
<path d="" fill="#9A9A9B" transform="translate(0,0)"/>
<path d="" fill="#979898" transform="translate(0,0)"/>
<path d="" fill="#908F91" transform="translate(0,0)"/>
<path d="" fill="#8E8E8F" transform="translate(0,0)"/>
<path d="" fill="#8D8F8E" transform="translate(0,0)"/>
<path d="" fill="#8D8E8E" transform="translate(0,0)"/>
<path d="" fill="#8E8F8E" transform="translate(0,0)"/>
<path d="" fill="#989898" transform="translate(0,0)"/>
<path d="" fill="#919191" transform="translate(0,0)"/>
<path d="" fill="#979799" transform="translate(0,0)"/>
<path d="" fill="#8D8F8D" transform="translate(0,0)"/>
<path d="" fill="#989A9B" transform="translate(0,0)"/>
<path d="" fill="#8A8D8C" transform="translate(0,0)"/>
<path d="" fill="#999999" transform="translate(0,0)"/>
<path d="" fill="#8D8D8F" transform="translate(0,0)"/>
<path d="" fill="#8D8D8D" transform="translate(0,0)"/>
<path d="" fill="#8C8E8C" transform="translate(0,0)"/>
<path d="" fill="#8C8E8D" transform="translate(0,0)"/>
<path d="" fill="#8D8D8C" transform="translate(0,0)"/>
<path d="" fill="#969897" transform="translate(0,0)"/>
<path d="" fill="#909091" transform="translate(0,0)"/>
<path d="" fill="#9B9C9C" transform="translate(0,0)"/>
<path d="" fill="#8D8D8E" transform="translate(0,0)"/>
<path d="" fill="#8A8C8C" transform="translate(0,0)"/>
<path d="" fill="#989799" transform="translate(0,0)"/>
<path d="" fill="#8C8D8C" transform="translate(0,0)"/>
<path d="" fill="#989797" transform="translate(0,0)"/>
<path d="" fill="#8D8C8D" transform="translate(0,0)"/>
<path d="" fill="#8C8C8C" transform="translate(0,0)"/>
<path d="" fill="#8B8C8B" transform="translate(0,0)"/>
<path d="" fill="#929393" transform="translate(0,0)"/>
<path d="" fill="#8F8E90" transform="translate(0,0)"/>
<path d="" fill="#9B9C9D" transform="translate(0,0)"/>
<path d="" fill="#888B8B" transform="translate(0,0)"/>
<path d="" fill="#969597" transform="translate(0,0)"/>
<path d="" fill="#898B8B" transform="translate(0,0)"/>
<path d="" fill="#969596" transform="translate(0,0)"/>
<path d="" fill="#8C8C8B" transform="translate(0,0)"/>
<path d="" fill="#8A8D8B" transform="translate(0,0)"/>
<path d="" fill="#9A9A9A" transform="translate(0,0)"/>
<path d="" fill="#9A999A" transform="translate(0,0)"/>
<path d="" fill="#8B8C8A" transform="translate(0,0)"/>
<path d="" fill="#8B8B8B" transform="translate(0,0)"/>
<path d="" fill="#8A8A8B" transform="translate(0,0)"/>
<path d="" fill="#8A8A8B" transform="translate(0,0)"/>
<path d="" fill="#91918E" transform="translate(0,0)"/>
<path d="" fill="#8F8E8E" transform="translate(0,0)"/>
<path d="" fill="#989799" transform="translate(0,0)"/>
<path d="" fill="#9A999A" transform="translate(0,0)"/>
<path d="" fill="#999A9A" transform="translate(0,0)"/>
<path d="" fill="#888A89" transform="translate(0,0)"/>
<path d="" fill="#8A898A" transform="translate(0,0)"/>
<path d="" fill="#949596" transform="translate(0,0)"/>
<path d="" fill="#939394" transform="translate(0,0)"/>
<path d="" fill="#888A8A" transform="translate(0,0)"/>
<path d="" fill="#9A9A9A" transform="translate(0,0)"/>
<path d="" fill="#8B8A8D" transform="translate(0,0)"/>
<path d="" fill="#8B8B8B" transform="translate(0,0)"/>
<path d="" fill="#9E9D9D" transform="translate(0,0)"/>
<path d="" fill="#898B8B" transform="translate(0,0)"/>
<path d="" fill="#8A8A8A" transform="translate(0,0)"/>
<path d="" fill="#939592" transform="translate(0,0)"/>
<path d="" fill="#8E8D8D" transform="translate(0,0)"/>
<path d="" fill="#898B89" transform="translate(0,0)"/>
<path d="" fill="#989A9B" transform="translate(0,0)"/>
<path d="" fill="#888889" transform="translate(0,0)"/>
<path d="" fill="#939394" transform="translate(0,0)"/>
<path d="" fill="#969496" transform="translate(0,0)"/>
<path d="" fill="#8B888A" transform="translate(0,0)"/>
<path d="" fill="#878989" transform="translate(0,0)"/>
<path d="" fill="#898888" transform="translate(0,0)"/>
<path d="" fill="#8A888A" transform="translate(0,0)"/>
<path d="" fill="#909292" transform="translate(0,0)"/>
<path d="" fill="#868887" transform="translate(0,0)"/>
<path d="" fill="#919192" transform="translate(0,0)"/>
<path d="" fill="#888989" transform="translate(0,0)"/>
<path d="" fill="#868887" transform="translate(0,0)"/>
<path d="" fill="#898988" transform="translate(0,0)"/>
<path d="" fill="#868686" transform="translate(0,0)"/>
<path d="" fill="#8A8B8A" transform="translate(0,0)"/>
<path d="" fill="#999A9B" transform="translate(0,0)"/>
<path d="" fill="#858687" transform="translate(0,0)"/>
<path d="" fill="#8F8F91" transform="translate(0,0)"/>
<path d="" fill="#858586" transform="translate(0,0)"/>
<path d="" fill="#888888" transform="translate(0,0)"/>
<path d="" fill="#858786" transform="translate(0,0)"/>
<path d="" fill="#878886" transform="translate(0,0)"/>
<path d="" fill="#868786" transform="translate(0,0)"/>
<path d="" fill="#868685" transform="translate(0,0)"/>
<path d="" fill="#8B8A8B" transform="translate(0,0)"/>
<path d="" fill="#8F8D8F" transform="translate(0,0)"/>
<path d="" fill="#868686" transform="translate(0,0)"/>
<path d="" fill="#838686" transform="translate(0,0)"/>
<path d="" fill="#858687" transform="translate(0,0)"/>
<path d="" fill="#858585" transform="translate(0,0)"/>
<path d="" fill="#838585" transform="translate(0,0)"/>
<path d="" fill="#8C8B8C" transform="translate(0,0)"/>
<path d="" fill="#8A898B" transform="translate(0,0)"/>
<path d="" fill="#9A9A9B" transform="translate(0,0)"/>
<path d="" fill="#848684" transform="translate(0,0)"/>
<path d="" fill="#9A9A9B" transform="translate(0,0)"/>
<path d="" fill="#8C8C8D" transform="translate(0,0)"/>
<path d="" fill="#90918F" transform="translate(0,0)"/>
<path d="" fill="#959495" transform="translate(0,0)"/>
<path d="" fill="#888986" transform="translate(0,0)"/>
<path d="" fill="#848685" transform="translate(0,0)"/>
<path d="" fill="#828484" transform="translate(0,0)"/>
<path d="" fill="#939293" transform="translate(0,0)"/>
<path d="" fill="#979596" transform="translate(0,0)"/>
<path d="" fill="#858585" transform="translate(0,0)"/>
<path d="" fill="#838384" transform="translate(0,0)"/>
<path d="" fill="#8A898B" transform="translate(0,0)"/>
<path d="" fill="#808182" transform="translate(0,0)"/>
<path d="" fill="#8A8B8B" transform="translate(0,0)"/>
<path d="" fill="#858383" transform="translate(0,0)"/>
<path d="" fill="#818283" transform="translate(0,0)"/>
<path d="" fill="#828281" transform="translate(0,0)"/>
<path d="" fill="#858484" transform="translate(0,0)"/>
<path d="" fill="#828182" transform="translate(0,0)"/>
<path d="" fill="#818081" transform="translate(0,0)"/>
<path d="" fill="#888888" transform="translate(0,0)"/>
<path d="" fill="#7F8080" transform="translate(0,0)"/>
<path d="" fill="#88888A" transform="translate(0,0)"/>
<path d="" fill="#7F8080" transform="translate(0,0)"/>
<path d="" fill="#838482" transform="translate(0,0)"/>
<path d="" fill="#7F7F7E" transform="translate(0,0)"/>
<path d="" fill="#878686" transform="translate(0,0)"/>
<path d="" fill="#808280" transform="translate(0,0)"/>
<path d="" fill="#7D7E7F" transform="translate(0,0)"/>
<path d="" fill="#868788" transform="translate(0,0)"/>
<path d="" fill="#878586" transform="translate(0,0)"/>
<path d="" fill="#828081" transform="translate(0,0)"/>
<path d="" fill="#7F7F7F" transform="translate(0,0)"/>
<path d="" fill="#7E7E7D" transform="translate(0,0)"/>
<path d="" fill="#868587" transform="translate(0,0)"/>
<path d="" fill="#818282" transform="translate(0,0)"/>
<path d="" fill="#969698" transform="translate(0,0)"/>
<path d="" fill="#9D9D9D" transform="translate(0,0)"/>
<path d="" fill="#7B7D7C" transform="translate(0,0)"/>
<path d="" fill="#858586" transform="translate(0,0)"/>
<path d="" fill="#7F7E80" transform="translate(0,0)"/>
<path d="" fill="#808181" transform="translate(0,0)"/>
<path d="" fill="#7D7E7E" transform="translate(0,0)"/>
<path d="" fill="#7C7C7B" transform="translate(0,0)"/>
<path d="" fill="#7B7C7B" transform="translate(0,0)"/>
<path d="" fill="#828283" transform="translate(0,0)"/>
<path d="" fill="#808080" transform="translate(0,0)"/>
<path d="" fill="#807F80" transform="translate(0,0)"/>
<path d="" fill="#7B7B7C" transform="translate(0,0)"/>
<path d="" fill="#808182" transform="translate(0,0)"/>
<path d="" fill="#838483" transform="translate(0,0)"/>
<path d="" fill="#969698" transform="translate(0,0)"/>
<path d="" fill="#9B9C9C" transform="translate(0,0)"/>
<path d="" fill="#9C9C9D" transform="translate(0,0)"/>
<path d="" fill="#777978" transform="translate(0,0)"/>
<path d="" fill="#7F8081" transform="translate(0,0)"/>
<path d="" fill="#7B7B7B" transform="translate(0,0)"/>
<path d="" fill="#7A7879" transform="translate(0,0)"/>
<path d="" fill="#777A7A" transform="translate(0,0)"/>
<path d="" fill="#787878" transform="translate(0,0)"/>
<path d="" fill="#7E7E7E" transform="translate(0,0)"/>
<path d="" fill="#828383" transform="translate(0,0)"/>
<path d="" fill="#9D9D9D" transform="translate(0,0)"/>
<path d="" fill="#787777" transform="translate(0,0)"/>
<path d="" fill="#767676" transform="translate(0,0)"/>
<path d="" fill="#7E7E7F" transform="translate(0,0)"/>
<path d="" fill="#7B7B7B" transform="translate(0,0)"/>
<path d="" fill="#7B7C7C" transform="translate(0,0)"/>
<path d="" fill="#7D7D7C" transform="translate(0,0)"/>
<path d="" fill="#818081" transform="translate(0,0)"/>
<path d="" fill="#777A78" transform="translate(0,0)"/>
<path d="" fill="#9D9E9D" transform="translate(0,0)"/>
<path d="" fill="#9E9D9E" transform="translate(0,0)"/>
<path d="" fill="#787978" transform="translate(0,0)"/>
<path d="" fill="#737475" transform="translate(0,0)"/>
<path d="" fill="#7B7B7C" transform="translate(0,0)"/>
<path d="" fill="#79797A" transform="translate(0,0)"/>
<path d="" fill="#9C9F9C" transform="translate(0,0)"/>
<path d="" fill="#7B7C7A" transform="translate(0,0)"/>
<path d="" fill="#757676" transform="translate(0,0)"/>
<path d="" fill="#737474" transform="translate(0,0)"/>
<path d="" fill="#797877" transform="translate(0,0)"/>
<path d="" fill="#9E9E9D" transform="translate(0,0)"/>
<path d="" fill="#717273" transform="translate(0,0)"/>
<path d="" fill="#797A7A" transform="translate(0,0)"/>
<path d="" fill="#767878" transform="translate(0,0)"/>
<path d="" fill="#7F7C7E" transform="translate(0,0)"/>
<path d="" fill="#757676" transform="translate(0,0)"/>
<path d="" fill="#6F6F6F" transform="translate(0,0)"/>
<path d="" fill="#7D7D7E" transform="translate(0,0)"/>
<path d="" fill="#9D9D9D" transform="translate(0,0)"/>
<path d="" fill="#9D9D9E" transform="translate(0,0)"/>
<path d="" fill="#727273" transform="translate(0,0)"/>
<path d="" fill="#747475" transform="translate(0,0)"/>
<path d="" fill="#9E9D9E" transform="translate(0,0)"/>
<path d="" fill="#9D9E9D" transform="translate(0,0)"/>
<path d="" fill="#757475" transform="translate(0,0)"/>
<path d="" fill="#6F7071" transform="translate(0,0)"/>
<path d="" fill="#707070" transform="translate(0,0)"/>
<path d="" fill="#6D6E6D" transform="translate(0,0)"/>
<path d="" fill="#7B7C7C" transform="translate(0,0)"/>
<path d="" fill="#717170" transform="translate(0,0)"/>
<path d="" fill="#6D706F" transform="translate(0,0)"/>
<path d="" fill="#9C9D9E" transform="translate(0,0)"/>
<path d="" fill="#717072" transform="translate(0,0)"/>
<path d="" fill="#717273" transform="translate(0,0)"/>
<path d="" fill="#6E6F6E" transform="translate(0,0)"/>
<path d="" fill="#6B6B6C" transform="translate(0,0)"/>
<path d="" fill="#6D6969" transform="translate(0,0)"/>
<path d="" fill="#6D6D6F" transform="translate(0,0)"/>
<path d="" fill="#696C6C" transform="translate(0,0)"/>
<path d="" fill="#7A7B7A" transform="translate(0,0)"/>
<path d="" fill="#6E6D6E" transform="translate(0,0)"/>
<path d="" fill="#6A6C6B" transform="translate(0,0)"/>
<path d="" fill="#676867" transform="translate(0,0)"/>
<path d="" fill="#737574" transform="translate(0,0)"/>
<path d="" fill="#6C6D6C" transform="translate(0,0)"/>
<path d="" fill="#696869" transform="translate(0,0)"/>
<path d="" fill="#696A6B" transform="translate(0,0)"/>
<path d="" fill="#666867" transform="translate(0,0)"/>
<path d="" fill="#676766" transform="translate(0,0)"/>
<path d="" fill="#666666" transform="translate(0,0)"/>
<path d="" fill="#6A6B6C" transform="translate(0,0)"/>
<path d="" fill="#9C9C9E" transform="translate(0,0)"/>
<path d="" fill="#666665" transform="translate(0,0)"/>
<path d="" fill="#9E9D9E" transform="translate(0,0)"/>
<path d="" fill="#727270" transform="translate(0,0)"/>
<path d="" fill="#656766" transform="translate(0,0)"/>
<path d="" fill="#666868" transform="translate(0,0)"/>
<path d="" fill="#767776" transform="translate(0,0)"/>
<path d="" fill="#939493" transform="translate(0,0)"/>
<path d="" fill="#9D9C9C" transform="translate(0,0)"/>
<path d="" fill="#636564" transform="translate(0,0)"/>
<path d="" fill="#696968" transform="translate(0,0)"/>
<path d="" fill="#6C6C6C" transform="translate(0,0)"/>
<path d="" fill="#646464" transform="translate(0,0)"/>
<path d="" fill="#686567" transform="translate(0,0)"/>
<path d="" fill="#646667" transform="translate(0,0)"/>
<path d="" fill="#747375" transform="translate(0,0)"/>
<path d="" fill="#666967" transform="translate(0,0)"/>
<path d="" fill="#787676" transform="translate(0,0)"/>
<path d="" fill="#606362" transform="translate(0,0)"/>
<path d="" fill="#656566" transform="translate(0,0)"/>
<path d="" fill="#9B9A9C" transform="translate(0,0)"/>
<path d="" fill="#6A6869" transform="translate(0,0)"/>
<path d="" fill="#666766" transform="translate(0,0)"/>
<path d="" fill="#616260" transform="translate(0,0)"/>
<path d="" fill="#626265" transform="translate(0,0)"/>
<path d="" fill="#9C9D9D" transform="translate(0,0)"/>
<path d="" fill="#6C6D6D" transform="translate(0,0)"/>
<path d="" fill="#656665" transform="translate(0,0)"/>
<path d="" fill="#606161" transform="translate(0,0)"/>
<path d="" fill="#616563" transform="translate(0,0)"/>
<path d="" fill="#9B9C9B" transform="translate(0,0)"/>
<path d="" fill="#5D6060" transform="translate(0,0)"/>
<path d="" fill="#636263" transform="translate(0,0)"/>
<path d="" fill="#616362" transform="translate(0,0)"/>
<path d="" fill="#5D5E5E" transform="translate(0,0)"/>
<path d="" fill="#6A6969" transform="translate(0,0)"/>
<path d="" fill="#616263" transform="translate(0,0)"/>
<path d="" fill="#5F5E5F" transform="translate(0,0)"/>
<path d="" fill="#616360" transform="translate(0,0)"/>
<path d="" fill="#8A8B89" transform="translate(0,0)"/>
<path d="" fill="#9A9B9B" transform="translate(0,0)"/>
<path d="" fill="#5B5E5D" transform="translate(0,0)"/>
<path d="" fill="#5D5E60" transform="translate(0,0)"/>
<path d="" fill="#646565" transform="translate(0,0)"/>
<path d="" fill="#606160" transform="translate(0,0)"/>
<path d="" fill="#5C5C5E" transform="translate(0,0)"/>
<path d="" fill="#5A5C5C" transform="translate(0,0)"/>
<path d="" fill="#999B9A" transform="translate(0,0)"/>
<path d="" fill="#595B5A" transform="translate(0,0)"/>
<path d="" fill="#5A5B5B" transform="translate(0,0)"/>
<path d="" fill="#8B8B8B" transform="translate(0,0)"/>
<path d="" fill="#5D5F5E" transform="translate(0,0)"/>
<path d="" fill="#5B5C5B" transform="translate(0,0)"/>
<path d="" fill="#5C5C5E" transform="translate(0,0)"/>
<path d="" fill="#98999A" transform="translate(0,0)"/>
<path d="" fill="#565859" transform="translate(0,0)"/>
<path d="" fill="#555657" transform="translate(0,0)"/>
<path d="" fill="#575658" transform="translate(0,0)"/>
<path d="" fill="#999899" transform="translate(0,0)"/>
<path d="" fill="#636363" transform="translate(0,0)"/>
<path d="" fill="#555857" transform="translate(0,0)"/>
<path d="" fill="#979798" transform="translate(0,0)"/>
<path d="" fill="#565858" transform="translate(0,0)"/>
<path d="" fill="#848685" transform="translate(0,0)"/>
<path d="" fill="#989899" transform="translate(0,0)"/>
<path d="" fill="#6B6C6C" transform="translate(0,0)"/>
<path d="" fill="#545354" transform="translate(0,0)"/>
<path d="" fill="#595958" transform="translate(0,0)"/>
<path d="" fill="#525252" transform="translate(0,0)"/>
<path d="" fill="#565858" transform="translate(0,0)"/>
<path d="" fill="#535554" transform="translate(0,0)"/>
<path d="" fill="#555957" transform="translate(0,0)"/>
<path d="" fill="#979897" transform="translate(0,0)"/>
<path d="" fill="#4F5352" transform="translate(0,0)"/>
<path d="" fill="#4F5050" transform="translate(0,0)"/>
<path d="" fill="#979696" transform="translate(0,0)"/>
<path d="" fill="#595858" transform="translate(0,0)"/>
<path d="" fill="#585758" transform="translate(0,0)"/>
<path d="" fill="#4C4D4D" transform="translate(0,0)"/>
<path d="" fill="#4B4C4C" transform="translate(0,0)"/>
<path d="" fill="#4A4D4C" transform="translate(0,0)"/>
<path d="" fill="#646465" transform="translate(0,0)"/>
<path d="" fill="#969496" transform="translate(0,0)"/>
<path d="" fill="#535554" transform="translate(0,0)"/>
<path d="" fill="#959695" transform="translate(0,0)"/>
<path d="" fill="#4E5050" transform="translate(0,0)"/>
<path d="" fill="#4D4F4E" transform="translate(0,0)"/>
<path d="" fill="#838384" transform="translate(0,0)"/>
<path d="" fill="#545353" transform="translate(0,0)"/>
<path d="" fill="#5B5B59" transform="translate(0,0)"/>
<path d="" fill="#515252" transform="translate(0,0)"/>
<path d="" fill="#4E4E4F" transform="translate(0,0)"/>
<path d="" fill="#494848" transform="translate(0,0)"/>
<path d="" fill="#4E5150" transform="translate(0,0)"/>
<path d="" fill="#4C5050" transform="translate(0,0)"/>
<path d="" fill="#515352" transform="translate(0,0)"/>
<path d="" fill="#949394" transform="translate(0,0)"/>
<path d="" fill="#4B4E4D" transform="translate(0,0)"/>
<path d="" fill="#474748" transform="translate(0,0)"/>
<path d="" fill="#575959" transform="translate(0,0)"/>
<path d="" fill="#4D504F" transform="translate(0,0)"/>
<path d="" fill="#575958" transform="translate(0,0)"/>
<path d="" fill="#565758" transform="translate(0,0)"/>
<path d="" fill="#4E4F50" transform="translate(0,0)"/>
<path d="" fill="#4C4C4C" transform="translate(0,0)"/>
<path d="" fill="#606060" transform="translate(0,0)"/>
<path d="" fill="#959595" transform="translate(0,0)"/>
<path d="" fill="#636263" transform="translate(0,0)"/>
<path d="" fill="#4F4F50" transform="translate(0,0)"/>
<path d="" fill="#494C4A" transform="translate(0,0)"/>
<path d="" fill="#434243" transform="translate(0,0)"/>
<path d="" fill="#514F52" transform="translate(0,0)"/>
<path d="" fill="#4B4D4C" transform="translate(0,0)"/>
<path d="" fill="#555757" transform="translate(0,0)"/>
<path d="" fill="#4A4C4B" transform="translate(0,0)"/>
<path d="" fill="#494A49" transform="translate(0,0)"/>
<path d="" fill="#5E5E5E" transform="translate(0,0)"/>
<path d="" fill="#454849" transform="translate(0,0)"/>
<path d="" fill="#3F3D40" transform="translate(0,0)"/>
<path d="" fill="#4D4E4F" transform="translate(0,0)"/>
<path d="" fill="#474A4A" transform="translate(0,0)"/>
<path d="" fill="#4B4D4E" transform="translate(0,0)"/>
<path d="" fill="#494B4B" transform="translate(0,0)"/>
<path d="" fill="#464746" transform="translate(0,0)"/>
<path d="" fill="#5F5D5C" transform="translate(0,0)"/>
<path d="" fill="#909092" transform="translate(0,0)"/>
<path d="" fill="#3A3A3C" transform="translate(0,0)"/>
<path d="" fill="#424545" transform="translate(0,0)"/>
<path d="" fill="#464748" transform="translate(0,0)"/>
<path d="" fill="#373837" transform="translate(0,0)"/>
<path d="" fill="#3F4040" transform="translate(0,0)"/>
<path d="" fill="#909190" transform="translate(0,0)"/>
<path d="" fill="#464848" transform="translate(0,0)"/>
<path d="" fill="#434445" transform="translate(0,0)"/>
<path d="" fill="#8F9090" transform="translate(0,0)"/>
<path d="" fill="#404242" transform="translate(0,0)"/>
<path d="" fill="#353537" transform="translate(0,0)"/>
<path d="" fill="#8E8F8F" transform="translate(0,0)"/>
<path d="" fill="#343332" transform="translate(0,0)"/>
<path d="" fill="#8E908F" transform="translate(0,0)"/>
<path d="" fill="#4D4E4C" transform="translate(0,0)"/>
<path d="" fill="#434444" transform="translate(0,0)"/>
<path d="" fill="#404141" transform="translate(0,0)"/>
<path d="" fill="#363637" transform="translate(0,0)"/>
<path d="" fill="#323131" transform="translate(0,0)"/>
<path d="" fill="#444546" transform="translate(0,0)"/>
<path d="" fill="#3B3C3C" transform="translate(0,0)"/>
<path d="" fill="#2D2E2E" transform="translate(0,0)"/>
<path d="" fill="#787878" transform="translate(0,0)"/>
<path d="" fill="#434443" transform="translate(0,0)"/>
<path d="" fill="#3B3D3B" transform="translate(0,0)"/>
<path d="" fill="#383836" transform="translate(0,0)"/>
<path d="" fill="#4F5050" transform="translate(0,0)"/>
<path d="" fill="#8C8C8D" transform="translate(0,0)"/>
<path d="" fill="#373B3A" transform="translate(0,0)"/>
<path d="" fill="#7B7A79" transform="translate(0,0)"/>
<path d="" fill="#4E4D4E" transform="translate(0,0)"/>
<path d="" fill="#434444" transform="translate(0,0)"/>
<path d="" fill="#383A38" transform="translate(0,0)"/>
<path d="" fill="#383838" transform="translate(0,0)"/>
<path d="" fill="#383433" transform="translate(0,0)"/>
<path d="" fill="#36383A" transform="translate(0,0)"/>
<path d="" fill="#8B8B8B" transform="translate(0,0)"/>
<path d="" fill="#373938" transform="translate(0,0)"/>
<path d="" fill="#4A4A4B" transform="translate(0,0)"/>
<path d="" fill="#3A3B3B" transform="translate(0,0)"/>
<path d="" fill="#3F403F" transform="translate(0,0)"/>
<path d="" fill="#363537" transform="translate(0,0)"/>
<path d="" fill="#89898B" transform="translate(0,0)"/>
<path d="" fill="#8A8B8A" transform="translate(0,0)"/>
<path d="" fill="#323534" transform="translate(0,0)"/>
<path d="" fill="#1F1E1F" transform="translate(0,0)"/>
<path d="" fill="#1B1C1B" transform="translate(0,0)"/>
<path d="" fill="#333433" transform="translate(0,0)"/>
<path d="" fill="#454646" transform="translate(0,0)"/>
<path d="" fill="#888989" transform="translate(0,0)"/>
<path d="" fill="#19191A" transform="translate(0,0)"/>
<path d="" fill="#787A78" transform="translate(0,0)"/>
<path d="" fill="#303232" transform="translate(0,0)"/>
<path d="" fill="#383837" transform="translate(0,0)"/>
<path d="" fill="#424243" transform="translate(0,0)"/>
<path d="" fill="#868787" transform="translate(0,0)"/>
<path d="" fill="#2E3030" transform="translate(0,0)"/>
<path d="" fill="#131214" transform="translate(0,0)"/>
<path d="" fill="#868687" transform="translate(0,0)"/>
<path d="" fill="#2D2E2E" transform="translate(0,0)"/>
<path d="" fill="#858685" transform="translate(0,0)"/>
<path d="" fill="#2B2E2C" transform="translate(0,0)"/>
<path d="" fill="#060704" transform="translate(0,0)"/>
<path d="" fill="#060605" transform="translate(0,0)"/>
<path d="" fill="#2B2B2C" transform="translate(0,0)"/>
<path d="" fill="#2B2B2B" transform="translate(0,0)"/>
<path d="" fill="#272426" transform="translate(0,0)"/>
<path d="" fill="#838485" transform="translate(0,0)"/>
<path d="" fill="#272A29" transform="translate(0,0)"/>
<path d="" fill="#363536" transform="translate(0,0)"/>
<path d="" fill="#222627" transform="translate(0,0)"/>
<path d="" fill="#121310" transform="translate(0,0)"/>
<path d="" fill="#121212" transform="translate(0,0)"/>
<path d="" fill="#120F11" transform="translate(0,0)"/>
<path d="" fill="#828482" transform="translate(0,0)"/>
<path d="" fill="#676A6B" transform="translate(0,0)"/>
<path d="" fill="#828283" transform="translate(0,0)"/>
<path d="" fill="#202423" transform="translate(0,0)"/>
<path d="" fill="#818182" transform="translate(0,0)"/>
<path d="" fill="#828281" transform="translate(0,0)"/>
<path d="" fill="#2A2C2A" transform="translate(0,0)"/>
<path d="" fill="#818282" transform="translate(0,0)"/>
<path d="" fill="#1D1F1F" transform="translate(0,0)"/>
<path d="" fill="#1B1B1B" transform="translate(0,0)"/>
<path d="" fill="#050605" transform="translate(0,0)"/>
<path d="" fill="#1A1A1B" transform="translate(0,0)"/>
<path d="" fill="#191B1B" transform="translate(0,0)"/>
<path d="" fill="#252625" transform="translate(0,0)"/>
<path d="" fill="#868686" transform="translate(0,0)"/>
<path d="" fill="#020403" transform="translate(0,0)"/>
<path d="" fill="#161818" transform="translate(0,0)"/>
<path d="" fill="#151415" transform="translate(0,0)"/>
<path d="" fill="#070605" transform="translate(0,0)"/>
<path d="" fill="#636566" transform="translate(0,0)"/>
<path d="" fill="#0C0D0C" transform="translate(0,0)"/>
<path d="" fill="#0A0809" transform="translate(0,0)"/>
<path d="" fill="#111413" transform="translate(0,0)"/>
<path d="" fill="#0A080B" transform="translate(0,0)"/>
<path d="" fill="#090A07" transform="translate(0,0)"/>
<path d="" fill="#070606" transform="translate(0,0)"/>
<path d="" fill="#080808" transform="translate(0,0)"/>
<path d="" fill="#7D7C7E" transform="translate(0,0)"/>
<path d="" fill="#050304" transform="translate(0,0)"/>
<path d="" fill="#7D7E7C" transform="translate(0,0)"/>
<path d="" fill="#090B0A" transform="translate(0,0)"/>
<path d="" fill="#7B7C7D" transform="translate(0,0)"/>
<path d="" fill="#7D7C7D" transform="translate(0,0)"/>
<path d="" fill="#0B0B0C" transform="translate(0,0)"/>
<path d="" fill="#040404" transform="translate(0,0)"/>
<path d="" fill="#050405" transform="translate(0,0)"/>
<path d="" fill="#7B7C7C" transform="translate(0,0)"/>
<path d="" fill="#7B7A7C" transform="translate(0,0)"/>
<path d="" fill="#0E0D0D" transform="translate(0,0)"/>
<path d="" fill="#030404" transform="translate(0,0)"/>
<path d="" fill="#020303" transform="translate(0,0)"/>
<path d="" fill="#010001" transform="translate(0,0)"/>
<path d="" fill="#010200" transform="translate(0,0)"/>
<path d="" fill="#070707" transform="translate(0,0)"/>
<path d="" fill="#010201" transform="translate(0,0)"/>
<path d="" fill="#000001" transform="translate(0,0)"/>
<path d="" fill="#7A7B7B" transform="translate(0,0)"/>
<path d="" fill="#090909" transform="translate(0,0)"/>
<path d="" fill="#000000" transform="translate(0,0)"/>
<path d="" fill="#797979" transform="translate(0,0)"/>
<path d="" fill="#050704" transform="translate(0,0)"/>
<path d="" fill="#030101" transform="translate(0,0)"/>
<path d="" fill="#010000" transform="translate(0,0)"/>
<path d="" fill="#0B0A09" transform="translate(0,0)"/>
<path d="" fill="#000001" transform="translate(0,0)"/>
<path d="" fill="#787877" transform="translate(0,0)"/>
<path d="" fill="#777878" transform="translate(0,0)"/>
<path d="" fill="#7E7D7E" transform="translate(0,0)"/>
<path d="" fill="#020503" transform="translate(0,0)"/>
<path d="" fill="#777877" transform="translate(0,0)"/>
<path d="" fill="#030404" transform="translate(0,0)"/>
<path d="" fill="#010000" transform="translate(0,0)"/>
<path d="" fill="#030201" transform="translate(0,0)"/>
<path d="" fill="#010202" transform="translate(0,0)"/>
<path d="" fill="#050504" transform="translate(0,0)"/>
<path d="" fill="#010000" transform="translate(0,0)"/>
<path d="" fill="#040404" transform="translate(0,0)"/>
<path d="" fill="#787778" transform="translate(0,0)"/>
<path d="" fill="#040303" transform="translate(0,0)"/>
<path d="" fill="#020101" transform="translate(0,0)"/>
<path d="" fill="#676969" transform="translate(0,0)"/>
<path d="" fill="#787877" transform="translate(0,0)"/>
<path d="" fill="#000000" transform="translate(0,0)"/>
<path d="" fill="#757577" transform="translate(0,0)"/>
<path d="" fill="#606260" transform="translate(0,0)"/>
<path d="" fill="#777777" transform="translate(0,0)"/>
<path d="" fill="#020103" transform="translate(0,0)"/>
<path d="" fill="#030204" transform="translate(0,0)"/>
<path d="" fill="#020402" transform="translate(0,0)"/>
<path d="" fill="#030404" transform="translate(0,0)"/>
<path d="" fill="#030403" transform="translate(0,0)"/>
<path d="" fill="#020200" transform="translate(0,0)"/>
<path d="" fill="#030403" transform="translate(0,0)"/>
<path d="" fill="#000202" transform="translate(0,0)"/>
<path d="" fill="#757677" transform="translate(0,0)"/>
<path d="" fill="#000000" transform="translate(0,0)"/>
<path d="" fill="#020203" transform="translate(0,0)"/>
<path d="" fill="#040304" transform="translate(0,0)"/>
<path d="" fill="#030303" transform="translate(0,0)"/>
<path d="" fill="#020203" transform="translate(0,0)"/>
<path d="" fill="#010201" transform="translate(0,0)"/>
<path d="" fill="#020302" transform="translate(0,0)"/>
<path d="" fill="#010203" transform="translate(0,0)"/>
<path d="" fill="#757776" transform="translate(0,0)"/>
<path d="" fill="#010401" transform="translate(0,0)"/>
<path d="" fill="#030402" transform="translate(0,0)"/>
<path d="" fill="#050706" transform="translate(0,0)"/>
<path d="" fill="#000000" transform="translate(0,0)"/>
<path d="" fill="#000001" transform="translate(0,0)"/>
<path d="" fill="#020504" transform="translate(0,0)"/>
<path d="" fill="#030303" transform="translate(0,0)"/>
<path d="" fill="#040506" transform="translate(0,0)"/>
<path d="" fill="#040002" transform="translate(0,0)"/>
<path d="" fill="#858785" transform="translate(0,0)"/>
<path d="" fill="#000101" transform="translate(0,0)"/>
<path d="" fill="#0A0A0B" transform="translate(0,0)"/>
<path d="" fill="#030100" transform="translate(0,0)"/>
<path d="" fill="#787878" transform="translate(0,0)"/>
<path d="" fill="#030305" transform="translate(0,0)"/>
<path d="" fill="#010102" transform="translate(0,0)"/>
<path d="" fill="#000102" transform="translate(0,0)"/>
<path d="" fill="#020303" transform="translate(0,0)"/>
<path d="" fill="#060605" transform="translate(0,0)"/>
<path d="" fill="#0A0A0B" transform="translate(0,0)"/>
<path d="" fill="#030303" transform="translate(0,0)"/>
<path d="" fill="#050405" transform="translate(0,0)"/>
<path d="" fill="#020402" transform="translate(0,0)"/>
<path d="" fill="#040301" transform="translate(0,0)"/>
<path d="" fill="#040303" transform="translate(0,0)"/>
<path d="" fill="#050304" transform="translate(0,0)"/>
<path d="" fill="#040304" transform="translate(0,0)"/>
<path d="" fill="#060507" transform="translate(0,0)"/>
<path d="" fill="#030203" transform="translate(0,0)"/>
<path d="" fill="#68686A" transform="translate(0,0)"/>
<path d="" fill="#070708" transform="translate(0,0)"/>
<path d="" fill="#070607" transform="translate(0,0)"/>
<path d="" fill="#010102" transform="translate(0,0)"/>
<path d="" fill="#060506" transform="translate(0,0)"/>
<path d="" fill="#868786" transform="translate(0,0)"/>
<path d="" fill="#030402" transform="translate(0,0)"/>
<path d="" fill="#010101" transform="translate(0,0)"/>
<path d="" fill="#0B090A" transform="translate(0,0)"/>
<path d="" fill="#6B6A6A" transform="translate(0,0)"/>
<path d="" fill="#787979" transform="translate(0,0)"/>
<path d="" fill="#0C0D0D" transform="translate(0,0)"/>
<path d="" fill="#111513" transform="translate(0,0)"/>
<path d="" fill="#0F0F0D" transform="translate(0,0)"/>
<path d="" fill="#0E0F0E" transform="translate(0,0)"/>
<path d="" fill="#040302" transform="translate(0,0)"/>
<path d="" fill="#050506" transform="translate(0,0)"/>
<path d="" fill="#080806" transform="translate(0,0)"/>
<path d="" fill="#030606" transform="translate(0,0)"/>
<path d="" fill="#050604" transform="translate(0,0)"/>
<path d="" fill="#171918" transform="translate(0,0)"/>
<path d="" fill="#787979" transform="translate(0,0)"/>
<path d="" fill="#0F1311" transform="translate(0,0)"/>
<path d="" fill="#040403" transform="translate(0,0)"/>
<path d="" fill="#7B7C7B" transform="translate(0,0)"/>
<path d="" fill="#161819" transform="translate(0,0)"/>
<path d="" fill="#030302" transform="translate(0,0)"/>
<path d="" fill="#242626" transform="translate(0,0)"/>
<path d="" fill="#767878" transform="translate(0,0)"/>
<path d="" fill="#1B1D1D" transform="translate(0,0)"/>
<path d="" fill="#1C1A1C" transform="translate(0,0)"/>
<path d="" fill="#1D1F1E" transform="translate(0,0)"/>
<path d="" fill="#7C7C7C" transform="translate(0,0)"/>
<path d="" fill="#1F2222" transform="translate(0,0)"/>
<path d="" fill="#7C7C7E" transform="translate(0,0)"/>
<path d="" fill="#7D7D7E" transform="translate(0,0)"/>
<path d="" fill="#050304" transform="translate(0,0)"/>
<path d="" fill="#030505" transform="translate(0,0)"/>
<path d="" fill="#7E7E7E" transform="translate(0,0)"/>
<path d="" fill="#252625" transform="translate(0,0)"/>
<path d="" fill="#252426" transform="translate(0,0)"/>
<path d="" fill="#040403" transform="translate(0,0)"/>
<path d="" fill="#282827" transform="translate(0,0)"/>
<path d="" fill="#21211F" transform="translate(0,0)"/>
<path d="" fill="#0C0E0D" transform="translate(0,0)"/>
<path d="" fill="#2A2C2A" transform="translate(0,0)"/>
<path d="" fill="#272A2A" transform="translate(0,0)"/>
<path d="" fill="#2B2C2A" transform="translate(0,0)"/>
<path d="" fill="#343534" transform="translate(0,0)"/>
<path d="" fill="#2A2D2D" transform="translate(0,0)"/>
<path d="" fill="#2F312F" transform="translate(0,0)"/>
<path d="" fill="#2F2E2D" transform="translate(0,0)"/>
<path d="" fill="#121011" transform="translate(0,0)"/>
<path d="" fill="#0C0C0D" transform="translate(0,0)"/>
<path d="" fill="#313231" transform="translate(0,0)"/>
<path d="" fill="#828282" transform="translate(0,0)"/>
<path d="" fill="#2D3030" transform="translate(0,0)"/>
<path d="" fill="#373938" transform="translate(0,0)"/>
<path d="" fill="#303131" transform="translate(0,0)"/>
<path d="" fill="#313232" transform="translate(0,0)"/>
<path d="" fill="#323435" transform="translate(0,0)"/>
<path d="" fill="#838383" transform="translate(0,0)"/>
<path d="" fill="#303432" transform="translate(0,0)"/>
<path d="" fill="#333435" transform="translate(0,0)"/>
<path d="" fill="#343636" transform="translate(0,0)"/>
<path d="" fill="#848584" transform="translate(0,0)"/>
<path d="" fill="#0B0C0D" transform="translate(0,0)"/>
<path d="" fill="#848385" transform="translate(0,0)"/>
<path d="" fill="#858485" transform="translate(0,0)"/>
<path d="" fill="#333536" transform="translate(0,0)"/>
<path d="" fill="#111011" transform="translate(0,0)"/>
<path d="" fill="#373636" transform="translate(0,0)"/>
<path d="" fill="#0B0B09" transform="translate(0,0)"/>
<path d="" fill="#383938" transform="translate(0,0)"/>
<path d="" fill="#373738" transform="translate(0,0)"/>
<path d="" fill="#0C0D0D" transform="translate(0,0)"/>
<path d="" fill="#080908" transform="translate(0,0)"/>
<path d="" fill="#878787" transform="translate(0,0)"/>
<path d="" fill="#363938" transform="translate(0,0)"/>
<path d="" fill="#191818" transform="translate(0,0)"/>
<path d="" fill="#393C3A" transform="translate(0,0)"/>
<path d="" fill="#323130" transform="translate(0,0)"/>
<path d="" fill="#414142" transform="translate(0,0)"/>
<path d="" fill="#3B3C3D" transform="translate(0,0)"/>
<path d="" fill="#89898A" transform="translate(0,0)"/>
<path d="" fill="#201F21" transform="translate(0,0)"/>
<path d="" fill="#3C3B3B" transform="translate(0,0)"/>
<path d="" fill="#3D3D3C" transform="translate(0,0)"/>
<path d="" fill="#3B3D3D" transform="translate(0,0)"/>
<path d="" fill="#272727" transform="translate(0,0)"/>
<path d="" fill="#3D3C3D" transform="translate(0,0)"/>
<path d="" fill="#696869" transform="translate(0,0)"/>
<path d="" fill="#3E3E3F" transform="translate(0,0)"/>
<path d="" fill="#383634" transform="translate(0,0)"/>
<path d="" fill="#454545" transform="translate(0,0)"/>
<path d="" fill="#3D403F" transform="translate(0,0)"/>
<path d="" fill="#3A3B3A" transform="translate(0,0)"/>
<path d="" fill="#2D2B2D" transform="translate(0,0)"/>
<path d="" fill="#403E3F" transform="translate(0,0)"/>
<path d="" fill="#404141" transform="translate(0,0)"/>
<path d="" fill="#404241" transform="translate(0,0)"/>
<path d="" fill="#8F8E8E" transform="translate(0,0)"/>
<path d="" fill="#424141" transform="translate(0,0)"/>
<path d="" fill="#3F3F40" transform="translate(0,0)"/>
<path d="" fill="#303130" transform="translate(0,0)"/>
<path d="" fill="#484747" transform="translate(0,0)"/>
<path d="" fill="#8E8F8F" transform="translate(0,0)"/>
<path d="" fill="#3E4241" transform="translate(0,0)"/>
<path d="" fill="#313133" transform="translate(0,0)"/>
<path d="" fill="#424343" transform="translate(0,0)"/>
<path d="" fill="#424343" transform="translate(0,0)"/>
<path d="" fill="#484949" transform="translate(0,0)"/>
<path d="" fill="#414343" transform="translate(0,0)"/>
<path d="" fill="#363838" transform="translate(0,0)"/>
<path d="" fill="#3F3F3E" transform="translate(0,0)"/>
<path d="" fill="#4B4A49" transform="translate(0,0)"/>
<path d="" fill="#949494" transform="translate(0,0)"/>
<path d="" fill="#434444" transform="translate(0,0)"/>
<path d="" fill="#3C3C3E" transform="translate(0,0)"/>
<path d="" fill="#454645" transform="translate(0,0)"/>
<path d="" fill="#474747" transform="translate(0,0)"/>
<path d="" fill="#474646" transform="translate(0,0)"/>
<path d="" fill="#454745" transform="translate(0,0)"/>
<path d="" fill="#4C4D4B" transform="translate(0,0)"/>
<path d="" fill="#464948" transform="translate(0,0)"/>
<path d="" fill="#959696" transform="translate(0,0)"/>
<path d="" fill="#434746" transform="translate(0,0)"/>
<path d="" fill="#414143" transform="translate(0,0)"/>
<path d="" fill="#969696" transform="translate(0,0)"/>
<path d="" fill="#494A48" transform="translate(0,0)"/>
<path d="" fill="#474748" transform="translate(0,0)"/>
<path d="" fill="#424343" transform="translate(0,0)"/>
<path d="" fill="#4C4C4D" transform="translate(0,0)"/>
<path d="" fill="#444747" transform="translate(0,0)"/>
<path d="" fill="#464646" transform="translate(0,0)"/>
<path d="" fill="#494948" transform="translate(0,0)"/>
<path d="" fill="#4A4A4A" transform="translate(0,0)"/>
<path d="" fill="#464746" transform="translate(0,0)"/>
<path d="" fill="#999999" transform="translate(0,0)"/>
<path d="" fill="#474849" transform="translate(0,0)"/>
<path d="" fill="#4B494B" transform="translate(0,0)"/>
<path d="" fill="#4A494B" transform="translate(0,0)"/>
<path d="" fill="#49494A" transform="translate(0,0)"/>
<path d="" fill="#9B9A9D" transform="translate(0,0)"/>
<path d="" fill="#484A4B" transform="translate(0,0)"/>
<path d="" fill="#4E4E50" transform="translate(0,0)"/>
<path d="" fill="#4B4C4C" transform="translate(0,0)"/>
<path d="" fill="#4D4E4C" transform="translate(0,0)"/>
<path d="" fill="#4C4D4C" transform="translate(0,0)"/>
<path d="" fill="#4B4C4B" transform="translate(0,0)"/>
<path d="" fill="#9C9C9D" transform="translate(0,0)"/>
<path d="" fill="#4C4D4E" transform="translate(0,0)"/>
<path d="" fill="#4A4C4C" transform="translate(0,0)"/>
<path d="" fill="#484947" transform="translate(0,0)"/>
<path d="" fill="#525353" transform="translate(0,0)"/>
<path d="" fill="#4F4E4F" transform="translate(0,0)"/>
<path d="" fill="#9D9E9E" transform="translate(0,0)"/>
<path d="" fill="#4D4D4E" transform="translate(0,0)"/>
<path d="" fill="#4E504F" transform="translate(0,0)"/>
<path d="" fill="#4D4E4E" transform="translate(0,0)"/>
<path d="" fill="#4D4D4D" transform="translate(0,0)"/>
<path d="" fill="#494845" transform="translate(0,0)"/>
<path d="" fill="#9F9F9F" transform="translate(0,0)"/>
<path d="" fill="#4B4D4D" transform="translate(0,0)"/>
<path d="" fill="#555556" transform="translate(0,0)"/>
<path d="" fill="#4F4E50" transform="translate(0,0)"/>
<path d="" fill="#4E4F4F" transform="translate(0,0)"/>
<path d="" fill="#505150" transform="translate(0,0)"/>
<path d="" fill="#4C504E" transform="translate(0,0)"/>
<path d="" fill="#58595A" transform="translate(0,0)"/>
<path d="" fill="#4D5051" transform="translate(0,0)"/>
<path d="" fill="#505051" transform="translate(0,0)"/>
<path d="" fill="#515250" transform="translate(0,0)"/>
<path d="" fill="#505151" transform="translate(0,0)"/>
<path d="" fill="#50514F" transform="translate(0,0)"/>
<path d="" fill="#595A5A" transform="translate(0,0)"/>
<path d="" fill="#515251" transform="translate(0,0)"/>
<path d="" fill="#4F5051" transform="translate(0,0)"/>
<path d="" fill="#5C5B5C" transform="translate(0,0)"/>
<path d="" fill="#A3A2A4" transform="translate(0,0)"/>
<path d="" fill="#545455" transform="translate(0,0)"/>
<path d="" fill="#525252" transform="translate(0,0)"/>
<path d="" fill="#505252" transform="translate(0,0)"/>
<path d="" fill="#5B5C5B" transform="translate(0,0)"/>
<path d="" fill="#515251" transform="translate(0,0)"/>
<path d="" fill="#505050" transform="translate(0,0)"/>
<path d="" fill="#575656" transform="translate(0,0)"/>
<path d="" fill="#585858" transform="translate(0,0)"/>
<path d="" fill="#4F5252" transform="translate(0,0)"/>
<path d="" fill="#5E5F5F" transform="translate(0,0)"/>
<path d="" fill="#545354" transform="translate(0,0)"/>
<path d="" fill="#5D5C5B" transform="translate(0,0)"/>
<path d="" fill="#A6A5A7" transform="translate(0,0)"/>
<path d="" fill="#595A59" transform="translate(0,0)"/>
<path d="" fill="#515452" transform="translate(0,0)"/>
<path d="" fill="#616161" transform="translate(0,0)"/>
<path d="" fill="#A6A5A7" transform="translate(0,0)"/>
<path d="" fill="#545656" transform="translate(0,0)"/>
<path d="" fill="#555655" transform="translate(0,0)"/>
<path d="" fill="#545456" transform="translate(0,0)"/>
<path d="" fill="#545454" transform="translate(0,0)"/>
<path d="" fill="#58595A" transform="translate(0,0)"/>
<path d="" fill="#636364" transform="translate(0,0)"/>
<path d="" fill="#575656" transform="translate(0,0)"/>
<path d="" fill="#535455" transform="translate(0,0)"/>
<path d="" fill="#656566" transform="translate(0,0)"/>
<path d="" fill="#565758" transform="translate(0,0)"/>
<path d="" fill="#565656" transform="translate(0,0)"/>
<path d="" fill="#636262" transform="translate(0,0)"/>
<path d="" fill="#5B5B5B" transform="translate(0,0)"/>
<path d="" fill="#ACABAC" transform="translate(0,0)"/>
<path d="" fill="#545756" transform="translate(0,0)"/>
<path d="" fill="#585858" transform="translate(0,0)"/>
<path d="" fill="#585A59" transform="translate(0,0)"/>
<path d="" fill="#575757" transform="translate(0,0)"/>
<path d="" fill="#666564" transform="translate(0,0)"/>
<path d="" fill="#5C5D5D" transform="translate(0,0)"/>
<path d="" fill="#ADACAE" transform="translate(0,0)"/>
<path d="" fill="#565757" transform="translate(0,0)"/>
<path d="" fill="#6A696B" transform="translate(0,0)"/>
<path d="" fill="#585A59" transform="translate(0,0)"/>
<path d="" fill="#575959" transform="translate(0,0)"/>
<path d="" fill="#59595A" transform="translate(0,0)"/>
<path d="" fill="#5F5F5F" transform="translate(0,0)"/>
<path d="" fill="#565958" transform="translate(0,0)"/>
<path d="" fill="#6C6C6D" transform="translate(0,0)"/>
<path d="" fill="#5F5D5E" transform="translate(0,0)"/>
<path d="" fill="#5A5A5B" transform="translate(0,0)"/>
<path d="" fill="#59595A" transform="translate(0,0)"/>
<path d="" fill="#575A59" transform="translate(0,0)"/>
<path d="" fill="#6E6E6F" transform="translate(0,0)"/>
<path d="" fill="#5E5B5C" transform="translate(0,0)"/>
<path d="" fill="#5A5C5C" transform="translate(0,0)"/>
<path d="" fill="#B1B1B0" transform="translate(0,0)"/>
<path d="" fill="#5E5C5C" transform="translate(0,0)"/>
<path d="" fill="#5C5B5B" transform="translate(0,0)"/>
<path d="" fill="#B4B3B4" transform="translate(0,0)"/>
<path d="" fill="#B2B2B3" transform="translate(0,0)"/>
<path d="" fill="#595B5B" transform="translate(0,0)"/>
<path d="" fill="#717071" transform="translate(0,0)"/>
<path d="" fill="#5C5D5D" transform="translate(0,0)"/>
<path d="" fill="#929291" transform="translate(0,0)"/>
<path d="" fill="#5F5F5F" transform="translate(0,0)"/>
<path d="" fill="#5D5E5D" transform="translate(0,0)"/>
<path d="" fill="#5B5B5C" transform="translate(0,0)"/>
<path d="" fill="#5E5D5D" transform="translate(0,0)"/>
<path d="" fill="#5B5C5C" transform="translate(0,0)"/>
<path d="" fill="#747373" transform="translate(0,0)"/>
<path d="" fill="#5F5D5F" transform="translate(0,0)"/>
<path d="" fill="#5D5F5E" transform="translate(0,0)"/>
<path d="" fill="#646465" transform="translate(0,0)"/>
<path d="" fill="#5E5E5E" transform="translate(0,0)"/>
<path d="" fill="#5C5E5E" transform="translate(0,0)"/>
<path d="" fill="#757576" transform="translate(0,0)"/>
<path d="" fill="#ADACAD" transform="translate(0,0)"/>
<path d="" fill="#616261" transform="translate(0,0)"/>
<path d="" fill="#606060" transform="translate(0,0)"/>
<path d="" fill="#5F5F5E" transform="translate(0,0)"/>
<path d="" fill="#5D5F5F" transform="translate(0,0)"/>
<path d="" fill="#777777" transform="translate(0,0)"/>
<path d="" fill="#616061" transform="translate(0,0)"/>
<path d="" fill="#5F5F5F" transform="translate(0,0)"/>
<path d="" fill="#676868" transform="translate(0,0)"/>
<path d="" fill="#B8B6B8" transform="translate(0,0)"/>
<path d="" fill="#5E6060" transform="translate(0,0)"/>
<path d="" fill="#7A777A" transform="translate(0,0)"/>
<path d="" fill="#606262" transform="translate(0,0)"/>
<path d="" fill="#616261" transform="translate(0,0)"/>
<path d="" fill="#646265" transform="translate(0,0)"/>
<path d="" fill="#5F6162" transform="translate(0,0)"/>
<path d="" fill="#7B7B7C" transform="translate(0,0)"/>
<path d="" fill="#646464" transform="translate(0,0)"/>
<path d="" fill="#626363" transform="translate(0,0)"/>
<path d="" fill="#737373" transform="translate(0,0)"/>
<path d="" fill="#646564" transform="translate(0,0)"/>
<path d="" fill="#5E5E60" transform="translate(0,0)"/>
<path d="" fill="#7E7D7D" transform="translate(0,0)"/>
<path d="" fill="#656566" transform="translate(0,0)"/>
<path d="" fill="#636564" transform="translate(0,0)"/>
<path d="" fill="#626363" transform="translate(0,0)"/>
<path d="" fill="#6D6B6D" transform="translate(0,0)"/>
<path d="" fill="#626463" transform="translate(0,0)"/>
<path d="" fill="#6B6B6C" transform="translate(0,0)"/>
<path d="" fill="#676667" transform="translate(0,0)"/>
<path d="" fill="#636665" transform="translate(0,0)"/>
<path d="" fill="#676967" transform="translate(0,0)"/>
<path d="" fill="#646463" transform="translate(0,0)"/>
<path d="" fill="#7F8080" transform="translate(0,0)"/>
<path d="" fill="#666866" transform="translate(0,0)"/>
<path d="" fill="#636565" transform="translate(0,0)"/>
<path d="" fill="#807F83" transform="translate(0,0)"/>
<path d="" fill="#686767" transform="translate(0,0)"/>
<path d="" fill="#676567" transform="translate(0,0)"/>
<path d="" fill="#656666" transform="translate(0,0)"/>
<path d="" fill="#666766" transform="translate(0,0)"/>
<path d="" fill="#646565" transform="translate(0,0)"/>
<path d="" fill="#7C7C7C" transform="translate(0,0)"/>
<path d="" fill="#6D6D6E" transform="translate(0,0)"/>
<path d="" fill="#666967" transform="translate(0,0)"/>
<path d="" fill="#6F706F" transform="translate(0,0)"/>
<path d="" fill="#636566" transform="translate(0,0)"/>
<path d="" fill="#818183" transform="translate(0,0)"/>
<path d="" fill="#646666" transform="translate(0,0)"/>
<path d="" fill="#696969" transform="translate(0,0)"/>
<path d="" fill="#636363" transform="translate(0,0)"/>
<path d="" fill="#68696A" transform="translate(0,0)"/>
<path d="" fill="#646667" transform="translate(0,0)"/>
<path d="" fill="#828284" transform="translate(0,0)"/>
<path d="" fill="#696A69" transform="translate(0,0)"/>
<path d="" fill="#676968" transform="translate(0,0)"/>
<path d="" fill="#838383" transform="translate(0,0)"/>
<path d="" fill="#6D6D6C" transform="translate(0,0)"/>
<path d="" fill="#676767" transform="translate(0,0)"/>
<path d="" fill="#676764" transform="translate(0,0)"/>
<path d="" fill="#838585" transform="translate(0,0)"/>
<path d="" fill="#717171" transform="translate(0,0)"/>
<path d="" fill="#656767" transform="translate(0,0)"/>
<path d="" fill="#848485" transform="translate(0,0)"/>
<path d="" fill="#858586" transform="translate(0,0)"/>
<path d="" fill="#6B6C6A" transform="translate(0,0)"/>
<path d="" fill="#686967" transform="translate(0,0)"/>
<path d="" fill="#696A6A" transform="translate(0,0)"/>
<path d="" fill="#6A6C6B" transform="translate(0,0)"/>
<path d="" fill="#BDBDBD" transform="translate(0,0)"/>
<path d="" fill="#676967" transform="translate(0,0)"/>
<path d="" fill="#868688" transform="translate(0,0)"/>
<path d="" fill="#656866" transform="translate(0,0)"/>
<path d="" fill="#898A89" transform="translate(0,0)"/>
<path d="" fill="#6D6C6E" transform="translate(0,0)"/>
<path d="" fill="#6B6B6B" transform="translate(0,0)"/>
<path d="" fill="#686968" transform="translate(0,0)"/>
<path d="" fill="#868888" transform="translate(0,0)"/>
<path d="" fill="#727372" transform="translate(0,0)"/>
<path d="" fill="#676969" transform="translate(0,0)"/>
<path d="" fill="#888789" transform="translate(0,0)"/>
<path d="" fill="#6D6D6E" transform="translate(0,0)"/>
<path d="" fill="#6C6C6C" transform="translate(0,0)"/>
<path d="" fill="#6C6C6C" transform="translate(0,0)"/>
<path d="" fill="#6B6B6B" transform="translate(0,0)"/>
<path d="" fill="#6A6969" transform="translate(0,0)"/>
<path d="" fill="#726F70" transform="translate(0,0)"/>
<path d="" fill="#848283" transform="translate(0,0)"/>
<path d="" fill="#737474" transform="translate(0,0)"/>
<path d="" fill="#B9BABB" transform="translate(0,0)"/>
<path d="" fill="#BEBDBF" transform="translate(0,0)"/>
<path d="" fill="#6E6D6E" transform="translate(0,0)"/>
<path d="" fill="#6B6C6D" transform="translate(0,0)"/>
<path d="" fill="#696A6A" transform="translate(0,0)"/>
<path d="" fill="#666667" transform="translate(0,0)"/>
<path d="" fill="#8A898B" transform="translate(0,0)"/>
<path d="" fill="#6F6E6F" transform="translate(0,0)"/>
<path d="" fill="#6B6C6C" transform="translate(0,0)"/>
<path d="" fill="#BFBEBF" transform="translate(0,0)"/>
<path d="" fill="#6D6D6D" transform="translate(0,0)"/>
<path d="" fill="#6A6B6B" transform="translate(0,0)"/>
<path d="" fill="#6A6A67" transform="translate(0,0)"/>
<path d="" fill="#727372" transform="translate(0,0)"/>
<path d="" fill="#7A787A" transform="translate(0,0)"/>
<path d="" fill="#888A8A" transform="translate(0,0)"/>
<path d="" fill="#656867" transform="translate(0,0)"/>
<path d="" fill="#BFBEBF" transform="translate(0,0)"/>
<path d="" fill="#6B6E6E" transform="translate(0,0)"/>
<path d="" fill="#727072" transform="translate(0,0)"/>
<path d="" fill="#696B6B" transform="translate(0,0)"/>
<path d="" fill="#8B8A8B" transform="translate(0,0)"/>
<path d="" fill="#ACABAC" transform="translate(0,0)"/>
<path d="" fill="#BEBEBF" transform="translate(0,0)"/>
<path d="" fill="#727372" transform="translate(0,0)"/>
<path d="" fill="#6E6F70" transform="translate(0,0)"/>
<path d="" fill="#6C6C6B" transform="translate(0,0)"/>
<path d="" fill="#868686" transform="translate(0,0)"/>
<path d="" fill="#8A8C8C" transform="translate(0,0)"/>
<path d="" fill="#6F7170" transform="translate(0,0)"/>
<path d="" fill="#C0C0C0" transform="translate(0,0)"/>
<path d="" fill="#6A6C6A" transform="translate(0,0)"/>
<path d="" fill="#676868" transform="translate(0,0)"/>
<path d="" fill="#8C8D8E" transform="translate(0,0)"/>
<path d="" fill="#717072" transform="translate(0,0)"/>
<path d="" fill="#737473" transform="translate(0,0)"/>
<path d="" fill="#707070" transform="translate(0,0)"/>
<path d="" fill="#6C6E6F" transform="translate(0,0)"/>
<path d="" fill="#6C6D6C" transform="translate(0,0)"/>
<path d="" fill="#888888" transform="translate(0,0)"/>
<path d="" fill="#BCBCBD" transform="translate(0,0)"/>
<path d="" fill="#707270" transform="translate(0,0)"/>
<path d="" fill="#6B6C6D" transform="translate(0,0)"/>
<path d="" fill="#69696B" transform="translate(0,0)"/>
<path d="" fill="#8E8E8F" transform="translate(0,0)"/>
<path d="" fill="#8E8D8F" transform="translate(0,0)"/>
<path d="" fill="#727174" transform="translate(0,0)"/>
<path d="" fill="#6E6F6F" transform="translate(0,0)"/>
<path d="" fill="#757473" transform="translate(0,0)"/>
<path d="" fill="#6E6E6D" transform="translate(0,0)"/>
<path d="" fill="#717373" transform="translate(0,0)"/>
<path d="" fill="#767777" transform="translate(0,0)"/>
<path d="" fill="#8E8F8F" transform="translate(0,0)"/>
<path d="" fill="#79797A" transform="translate(0,0)"/>
<path d="" fill="#727372" transform="translate(0,0)"/>
<path d="" fill="#6C6E6D" transform="translate(0,0)"/>
<path d="" fill="#8F8F91" transform="translate(0,0)"/>
<path d="" fill="#747274" transform="translate(0,0)"/>
<path d="" fill="#B9B7BA" transform="translate(0,0)"/>
<path d="" fill="#767776" transform="translate(0,0)"/>
<path d="" fill="#767575" transform="translate(0,0)"/>
<path d="" fill="#727273" transform="translate(0,0)"/>
<path d="" fill="#6E6E6E" transform="translate(0,0)"/>
<path d="" fill="#8A8A89" transform="translate(0,0)"/>
<path d="" fill="#8E9091" transform="translate(0,0)"/>
<path d="" fill="#BEBDBF" transform="translate(0,0)"/>
<path d="" fill="#C2C1C2" transform="translate(0,0)"/>
<path d="" fill="#6C6F6F" transform="translate(0,0)"/>
<path d="" fill="#909091" transform="translate(0,0)"/>
<path d="" fill="#7B7A7C" transform="translate(0,0)"/>
<path d="" fill="#707271" transform="translate(0,0)"/>
<path d="" fill="#6A6A6D" transform="translate(0,0)"/>
<path d="" fill="#828282" transform="translate(0,0)"/>
<path d="" fill="#777977" transform="translate(0,0)"/>
<path d="" fill="#727273" transform="translate(0,0)"/>
<path d="" fill="#717272" transform="translate(0,0)"/>
<path d="" fill="#706F6F" transform="translate(0,0)"/>
<path d="" fill="#868688" transform="translate(0,0)"/>
<path d="" fill="#8B8A8A" transform="translate(0,0)"/>
<path d="" fill="#C6C5C6" transform="translate(0,0)"/>
</svg>
